<svg id="_ÎÓÈ_5" data-name="—ÎÓÈ_5" xmlns="http://www.w3.org/2000/svg" viewBox="0 0 1523.13 2418"><defs><style>.cls-1{fill:#66f55b;}.cls-2{fill:#47d43a;}.cls-3{fill:#6bcfff;}.cls-4{fill:#00a1ee;}.cls-5{fill:#3fbd34;}.cls-6{fill:#007eba;}.cls-7{fill:#8a4923;}.cls-8{fill:#452511;}.cls-9{fill:#1d9c13;}.cls-10{fill:#bf6530;}</style></defs><rect x="1470.61" y="1209" width="52.52" height="52.52"/><rect x="1470.61" y="1156.48" width="52.52" height="52.52"/><rect x="1470.61" y="1103.96" width="52.52" height="52.52"/><rect x="1470.61" y="1051.43" width="52.52" height="52.52"/><rect x="1470.61" y="631.26" width="52.52" height="52.52"/><rect x="1470.61" y="578.74" width="52.52" height="52.52"/><rect x="1418.09" y="1103.96" width="52.52" height="52.52"/><rect class="cls-1" x="1418.09" y="1051.43" width="52.52" height="52.52"/><rect x="1418.09" y="998.91" width="52.52" height="52.52"/><rect x="1418.09" y="578.74" width="52.52" height="52.52"/><rect x="1418.09" y="526.22" width="52.52" height="52.52"/><rect x="1418.09" y="316.13" width="52.52" height="52.52"/><rect x="1418.09" y="263.61" width="52.52" height="52.52"/><rect x="1365.57" y="1051.43" width="52.52" height="52.52"/><rect class="cls-2" x="1365.57" y="998.91" width="52.52" height="52.52"/><rect x="1365.57" y="946.39" width="52.52" height="52.52"/><rect x="1365.57" y="578.74" width="52.52" height="52.52"/><rect class="cls-1" x="1365.57" y="526.22" width="52.52" height="52.52"/><rect x="1365.57" y="473.7" width="52.52" height="52.52"/><rect x="1365.57" y="263.61" width="52.52" height="52.52"/><rect x="1365.57" y="211.09" width="52.52" height="52.52"/><rect x="1313.04" y="998.91" width="52.52" height="52.52"/><rect class="cls-2" x="1313.04" y="946.39" width="52.52" height="52.52"/><rect x="1313.04" y="893.87" width="52.52" height="52.52"/><rect x="1313.04" y="578.74" width="52.52" height="52.52"/><rect class="cls-1" x="1313.04" y="526.22" width="52.52" height="52.52"/><rect x="1313.04" y="473.7" width="52.52" height="52.52"/><rect x="1313.04" y="211.09" width="52.52" height="52.52"/><rect x="1260.52" y="1681.7" width="52.52" height="52.52"/><rect x="1260.52" y="1629.17" width="52.52" height="52.52"/><rect x="1260.52" y="1576.65" width="52.52" height="52.52"/><rect x="1260.52" y="998.91" width="52.52" height="52.52"/><rect class="cls-2" x="1260.52" y="946.39" width="52.52" height="52.52"/><rect x="1260.52" y="893.87" width="52.52" height="52.52"/><rect x="1260.52" y="578.74" width="52.52" height="52.52"/><rect class="cls-2" x="1260.52" y="526.22" width="52.52" height="52.52"/><rect x="1260.52" y="473.7" width="52.52" height="52.52"/><rect x="1260.52" y="263.61" width="52.52" height="52.52"/><rect class="cls-1" x="1260.52" y="211.09" width="52.52" height="52.52"/><rect x="1260.52" y="158.57" width="52.52" height="52.52"/><rect x="1208" y="1891.78" width="52.52" height="52.52"/><rect x="1208" y="1839.26" width="52.52" height="52.52"/><rect x="1208" y="1786.74" width="52.52" height="52.52"/><rect x="1208" y="1734.22" width="52.52" height="52.52"/><rect class="cls-3" x="1208" y="1681.7" width="52.52" height="52.52"/><rect class="cls-4" x="1208" y="1629.17" width="52.52" height="52.52"/><rect class="cls-4" x="1208" y="1576.65" width="52.52" height="52.52"/><rect x="1208" y="1524.13" width="52.52" height="52.52"/><rect x="1208" y="946.39" width="52.52" height="52.52"/><rect class="cls-5" x="1208" y="893.87" width="52.52" height="52.52"/><rect x="1208" y="841.35" width="52.52" height="52.52"/><rect x="1208" y="631.26" width="52.52" height="52.52"/><rect class="cls-5" x="1208" y="578.74" width="52.52" height="52.52"/><rect class="cls-2" x="1208" y="526.22" width="52.52" height="52.52"/><rect x="1208" y="473.7" width="52.52" height="52.52"/><rect x="1208" y="263.61" width="52.52" height="52.52"/><rect class="cls-1" x="1208" y="211.09" width="52.52" height="52.52"/><rect x="1208" y="158.57" width="52.52" height="52.52"/><rect x="1155.48" y="2154.39" width="52.52" height="52.52"/><rect x="1155.48" y="2101.87" width="52.52" height="52.52"/><rect x="1155.48" y="2049.35" width="52.52" height="52.52"/><rect x="1155.48" y="1996.83" width="52.52" height="52.52"/><rect x="1155.48" y="1944.3" width="52.52" height="52.52"/><rect class="cls-4" x="1155.48" y="1891.78" width="52.52" height="52.52"/><rect class="cls-4" x="1155.48" y="1839.26" width="52.52" height="52.52"/><rect class="cls-6" x="1155.48" y="1786.74" width="52.52" height="52.52"/><rect x="1155.48" y="1734.22" width="52.52" height="52.52"/><rect class="cls-3" x="1155.48" y="1681.7" width="52.52" height="52.52"/><rect x="1155.48" y="1629.17" width="52.52" height="52.52"/><rect x="1155.48" y="1576.65" width="52.52" height="52.52"/><rect x="1155.48" y="1524.13" width="52.52" height="52.52"/><rect x="1155.48" y="946.39" width="52.52" height="52.52"/><rect class="cls-5" x="1155.48" y="893.87" width="52.52" height="52.52"/><rect x="1155.48" y="841.35" width="52.52" height="52.52"/><rect x="1155.48" y="631.26" width="52.52" height="52.52"/><rect class="cls-5" x="1155.48" y="578.74" width="52.52" height="52.52"/><rect x="1155.48" y="526.22" width="52.52" height="52.52"/><rect x="1155.48" y="263.61" width="52.52" height="52.52"/><rect class="cls-1" x="1155.48" y="211.09" width="52.52" height="52.52"/><rect x="1155.48" y="158.57" width="52.52" height="52.52"/><rect x="1102.96" y="2259.43" width="52.52" height="52.52"/><rect x="1102.96" y="2206.91" width="52.52" height="52.52"/><rect class="cls-4" x="1102.96" y="2154.39" width="52.52" height="52.52"/><rect class="cls-4" x="1102.96" y="2101.87" width="52.52" height="52.52"/><rect class="cls-4" x="1102.96" y="2049.35" width="52.52" height="52.52"/><rect class="cls-4" x="1102.96" y="1996.83" width="52.52" height="52.52"/><rect class="cls-4" x="1102.96" y="1944.3" width="52.52" height="52.52"/><rect class="cls-4" x="1102.96" y="1891.78" width="52.52" height="52.52"/><rect class="cls-6" x="1102.96" y="1839.26" width="52.52" height="52.52"/><rect x="1102.96" y="1786.74" width="52.52" height="52.52"/><rect class="cls-3" x="1102.96" y="1734.22" width="52.52" height="52.52"/><rect x="1102.96" y="1681.7" width="52.52" height="52.52"/><rect class="cls-7" x="1102.96" y="1629.17" width="52.52" height="52.52"/><rect class="cls-8" x="1102.96" y="1576.65" width="52.52" height="52.52"/><rect x="1102.96" y="1524.13" width="52.52" height="52.52"/><rect x="1102.96" y="1419.09" width="52.52" height="52.52"/><rect x="1102.96" y="1366.57" width="52.52" height="52.52"/><rect x="1102.96" y="1314.04" width="52.52" height="52.52"/><rect x="1102.96" y="1261.52" width="52.52" height="52.52"/><rect x="1102.96" y="1209" width="52.52" height="52.52"/><rect x="1102.96" y="946.39" width="52.52" height="52.52"/><rect class="cls-5" x="1102.96" y="893.87" width="52.52" height="52.52"/><rect x="1102.96" y="841.35" width="52.52" height="52.52"/><rect x="1102.96" y="683.78" width="52.52" height="52.52"/><rect class="cls-5" x="1102.96" y="631.26" width="52.52" height="52.52"/><rect class="cls-5" x="1102.96" y="578.74" width="52.52" height="52.52"/><rect x="1102.96" y="526.22" width="52.52" height="52.52"/><rect x="1102.96" y="263.61" width="52.52" height="52.52"/><rect class="cls-2" x="1102.96" y="211.09" width="52.52" height="52.52"/><rect x="1102.96" y="158.57" width="52.52" height="52.52"/><rect x="1050.43" y="2311.96" width="52.52" height="52.52"/><rect class="cls-6" x="1050.43" y="2259.43" width="52.52" height="52.52"/><rect class="cls-4" x="1050.43" y="2206.91" width="52.52" height="52.52"/><rect class="cls-4" x="1050.43" y="2154.39" width="52.52" height="52.52"/><rect class="cls-4" x="1050.43" y="2101.87" width="52.52" height="52.52"/><rect class="cls-3" x="1050.43" y="2049.35" width="52.52" height="52.52"/><rect class="cls-3" x="1050.43" y="1996.83" width="52.52" height="52.52"/><rect class="cls-3" x="1050.43" y="1944.3" width="52.52" height="52.52"/><rect class="cls-4" x="1050.43" y="1891.78" width="52.52" height="52.52"/><rect class="cls-6" x="1050.43" y="1839.26" width="52.52" height="52.52"/><rect x="1050.43" y="1786.74" width="52.52" height="52.52"/><rect class="cls-3" x="1050.43" y="1734.22" width="52.52" height="52.52"/><rect x="1050.43" y="1681.7" width="52.52" height="52.52"/><rect class="cls-8" x="1050.43" y="1629.17" width="52.52" height="52.52"/><rect class="cls-8" x="1050.43" y="1576.65" width="52.52" height="52.52"/><rect class="cls-8" x="1050.43" y="1524.13" width="52.52" height="52.52"/><rect x="1050.43" y="1471.61" width="52.52" height="52.52"/><rect x="1050.43" y="1314.04" width="52.52" height="52.52"/><rect class="cls-1" x="1050.43" y="1261.52" width="52.52" height="52.52"/><rect class="cls-1" x="1050.43" y="1209" width="52.52" height="52.52"/><rect x="1050.43" y="1156.48" width="52.52" height="52.52"/><rect x="1050.43" y="946.39" width="52.52" height="52.52"/><rect class="cls-5" x="1050.43" y="893.87" width="52.52" height="52.52"/><rect x="1050.43" y="841.35" width="52.52" height="52.52"/><rect x="1050.43" y="736.3" width="52.52" height="52.52"/><rect class="cls-9" x="1050.43" y="683.78" width="52.52" height="52.52"/><rect class="cls-5" x="1050.43" y="631.26" width="52.52" height="52.52"/><rect x="1050.43" y="578.74" width="52.52" height="52.52"/><rect x="1050.43" y="316.13" width="52.52" height="52.52"/><rect class="cls-5" x="1050.43" y="263.61" width="52.52" height="52.52"/><rect class="cls-2" x="1050.43" y="211.09" width="52.52" height="52.52"/><rect x="1050.43" y="158.57" width="52.52" height="52.52"/><rect x="997.91" y="2311.96" width="52.52" height="52.52"/><rect class="cls-6" x="997.91" y="2259.43" width="52.52" height="52.52"/><rect class="cls-4" x="997.91" y="2206.91" width="52.52" height="52.52"/><rect class="cls-3" x="997.91" y="2154.39" width="52.52" height="52.52"/><rect class="cls-3" x="997.91" y="2101.87" width="52.52" height="52.52"/><rect class="cls-3" x="997.91" y="2049.35" width="52.52" height="52.52"/><rect class="cls-3" x="997.91" y="1996.83" width="52.52" height="52.52"/><rect class="cls-3" x="997.91" y="1944.3" width="52.52" height="52.52"/><rect class="cls-4" x="997.91" y="1891.78" width="52.52" height="52.52"/><rect class="cls-6" x="997.91" y="1839.26" width="52.52" height="52.52"/><rect x="997.91" y="1786.74" width="52.52" height="52.52"/><rect class="cls-3" x="997.91" y="1734.22" width="52.52" height="52.52"/><rect x="997.91" y="1681.7" width="52.52" height="52.52"/><rect class="cls-8" x="997.91" y="1629.17" width="52.52" height="52.52"/><rect class="cls-8" x="997.91" y="1576.65" width="52.52" height="52.52"/><rect class="cls-10" x="997.91" y="1524.13" width="52.52" height="52.52"/><rect x="997.91" y="1471.61" width="52.52" height="52.52"/><rect x="997.91" y="1261.52" width="52.52" height="52.52"/><rect class="cls-1" x="997.91" y="1209" width="52.52" height="52.52"/><rect class="cls-2" x="997.91" y="1156.48" width="52.52" height="52.52"/><rect x="997.91" y="1103.96" width="52.52" height="52.52"/><rect x="997.91" y="1051.43" width="52.52" height="52.52"/><rect x="997.91" y="946.39" width="52.52" height="52.52"/><rect class="cls-5" x="997.91" y="893.87" width="52.52" height="52.52"/><rect x="997.91" y="841.35" width="52.52" height="52.52"/><rect x="997.91" y="736.3" width="52.52" height="52.52"/><rect class="cls-9" x="997.91" y="683.78" width="52.52" height="52.52"/><rect x="997.91" y="631.26" width="52.52" height="52.52"/><rect x="997.91" y="316.13" width="52.52" height="52.52"/><rect class="cls-9" x="997.91" y="263.61" width="52.52" height="52.52"/><rect x="997.91" y="211.09" width="52.52" height="52.52"/><rect x="945.39" y="2364.48" width="52.52" height="52.52"/><rect class="cls-6" x="945.39" y="2311.96" width="52.52" height="52.52"/><rect class="cls-4" x="945.39" y="2259.43" width="52.52" height="52.52"/><rect class="cls-3" x="945.39" y="2206.91" width="52.52" height="52.52"/><rect class="cls-3" x="945.39" y="2154.39" width="52.52" height="52.52"/><rect class="cls-3" x="945.39" y="2101.87" width="52.52" height="52.52"/><rect class="cls-3" x="945.39" y="2049.35" width="52.52" height="52.52"/><rect class="cls-3" x="945.39" y="1996.83" width="52.52" height="52.52"/><rect class="cls-4" x="945.39" y="1944.3" width="52.52" height="52.52"/><rect class="cls-6" x="945.39" y="1891.78" width="52.52" height="52.52"/><rect x="945.39" y="1839.26" width="52.52" height="52.52"/><rect class="cls-3" x="945.39" y="1786.74" width="52.52" height="52.52"/><rect x="945.39" y="1734.22" width="52.52" height="52.52"/><rect class="cls-10" x="945.39" y="1681.7" width="52.52" height="52.52"/><rect class="cls-8" x="945.39" y="1629.17" width="52.52" height="52.52"/><rect class="cls-7" x="945.39" y="1576.65" width="52.52" height="52.52"/><rect class="cls-8" x="945.39" y="1524.13" width="52.52" height="52.52"/><rect x="945.39" y="1471.61" width="52.52" height="52.52"/><rect x="945.39" y="1209" width="52.52" height="52.52"/><rect class="cls-9" x="945.39" y="1156.48" width="52.52" height="52.52"/><rect class="cls-5" x="945.39" y="1103.96" width="52.52" height="52.52"/><rect x="945.39" y="1051.43" width="52.52" height="52.52"/><rect x="945.39" y="998.91" width="52.52" height="52.52"/><rect class="cls-9" x="945.39" y="946.39" width="52.52" height="52.52"/><rect x="945.39" y="893.87" width="52.52" height="52.52"/><rect x="945.39" y="736.3" width="52.52" height="52.52"/><rect class="cls-9" x="945.39" y="683.78" width="52.52" height="52.52"/><rect x="945.39" y="631.26" width="52.52" height="52.52"/><rect x="945.39" y="421.17" width="52.52" height="52.52"/><rect x="945.39" y="368.65" width="52.52" height="52.52"/><rect class="cls-9" x="945.39" y="316.13" width="52.52" height="52.52"/><rect class="cls-5" x="945.39" y="263.61" width="52.52" height="52.52"/><rect x="945.39" y="211.09" width="52.52" height="52.52"/><rect x="892.87" y="2364.48" width="52.52" height="52.52"/><rect class="cls-6" x="892.87" y="2311.96" width="52.52" height="52.52"/><rect class="cls-4" x="892.87" y="2259.43" width="52.52" height="52.52"/><rect class="cls-3" x="892.87" y="2206.91" width="52.52" height="52.52"/><rect class="cls-4" x="892.87" y="2154.39" width="52.52" height="52.52"/><rect class="cls-4" x="892.87" y="2101.87" width="52.52" height="52.52"/><rect class="cls-4" x="892.87" y="2049.35" width="52.52" height="52.52"/><rect class="cls-4" x="892.87" y="1996.83" width="52.52" height="52.52"/><rect class="cls-4" x="892.87" y="1944.3" width="52.52" height="52.52"/><rect class="cls-6" x="892.87" y="1891.78" width="52.52" height="52.52"/><rect x="892.87" y="1839.26" width="52.52" height="52.52"/><rect class="cls-3" x="892.87" y="1786.74" width="52.52" height="52.52"/><rect x="892.87" y="1734.22" width="52.52" height="52.52"/><rect class="cls-8" x="892.87" y="1681.7" width="52.52" height="52.52"/><rect x="892.87" y="1629.17" width="52.52" height="52.52"/><rect x="892.87" y="1576.65" width="52.52" height="52.52"/><rect x="892.87" y="1524.13" width="52.52" height="52.52"/><rect x="892.87" y="1471.61" width="52.52" height="52.52"/><rect x="892.87" y="1419.09" width="52.52" height="52.52"/><rect x="892.87" y="1366.57" width="52.52" height="52.52"/><rect x="892.87" y="1314.04" width="52.52" height="52.52"/><rect x="892.87" y="1261.52" width="52.52" height="52.52"/><rect x="892.87" y="1209" width="52.52" height="52.52"/><rect class="cls-9" x="892.87" y="1156.48" width="52.52" height="52.52"/><rect class="cls-5" x="892.87" y="1103.96" width="52.52" height="52.52"/><rect class="cls-9" x="892.87" y="1051.43" width="52.52" height="52.52"/><rect x="892.87" y="998.91" width="52.52" height="52.52"/><rect x="892.87" y="946.39" width="52.52" height="52.52"/><rect x="892.87" y="893.87" width="52.52" height="52.52"/><rect x="892.87" y="841.35" width="52.52" height="52.52"/><rect x="892.87" y="788.83" width="52.52" height="52.52"/><rect x="892.87" y="736.3" width="52.52" height="52.52"/><rect x="892.87" y="683.78" width="52.52" height="52.52"/><rect x="892.87" y="631.26" width="52.52" height="52.52"/><rect x="892.87" y="578.74" width="52.52" height="52.52"/><rect x="892.87" y="526.22" width="52.52" height="52.52"/><rect x="892.87" y="473.7" width="52.52" height="52.52"/><rect class="cls-9" x="892.87" y="421.17" width="52.52" height="52.52"/><rect class="cls-5" x="892.87" y="368.65" width="52.52" height="52.52"/><rect class="cls-5" x="892.87" y="316.13" width="52.52" height="52.52"/><rect x="892.87" y="263.61" width="52.52" height="52.52"/><rect x="840.35" y="2364.48" width="52.52" height="52.52"/><rect class="cls-6" x="840.35" y="2311.96" width="52.52" height="52.52"/><rect class="cls-4" x="840.35" y="2259.43" width="52.52" height="52.52"/><rect class="cls-4" x="840.35" y="2206.91" width="52.52" height="52.52"/><rect class="cls-4" x="840.35" y="2154.39" width="52.52" height="52.52"/><rect class="cls-4" x="840.35" y="2101.87" width="52.52" height="52.52"/><rect class="cls-4" x="840.35" y="2049.35" width="52.52" height="52.52"/><rect class="cls-4" x="840.35" y="1996.83" width="52.52" height="52.52"/><rect class="cls-4" x="840.35" y="1944.3" width="52.52" height="52.52"/><rect class="cls-6" x="840.35" y="1891.78" width="52.52" height="52.52"/><rect x="840.35" y="1839.26" width="52.52" height="52.52"/><rect class="cls-3" x="840.35" y="1786.74" width="52.52" height="52.52"/><rect x="840.35" y="1734.22" width="52.52" height="52.52"/><rect class="cls-8" x="840.35" y="1681.7" width="52.52" height="52.52"/><rect x="840.35" y="1629.17" width="52.52" height="52.52"/><rect class="cls-9" x="840.35" y="1576.65" width="52.52" height="52.52"/><rect class="cls-5" x="840.35" y="1524.13" width="52.52" height="52.52"/><rect class="cls-5" x="840.35" y="1471.61" width="52.52" height="52.52"/><rect class="cls-5" x="840.35" y="1419.09" width="52.52" height="52.52"/><rect class="cls-5" x="840.35" y="1366.57" width="52.52" height="52.52"/><rect class="cls-5" x="840.35" y="1314.04" width="52.52" height="52.52"/><rect class="cls-5" x="840.35" y="1261.52" width="52.52" height="52.52"/><rect class="cls-1" x="840.35" y="1209" width="52.52" height="52.52"/><rect x="840.35" y="1156.48" width="52.52" height="52.52"/><rect class="cls-9" x="840.35" y="1103.96" width="52.52" height="52.52"/><rect class="cls-9" x="840.35" y="1051.43" width="52.52" height="52.52"/><rect x="840.35" y="998.91" width="52.52" height="52.52"/><rect class="cls-5" x="840.35" y="946.39" width="52.52" height="52.52"/><rect class="cls-5" x="840.35" y="893.87" width="52.52" height="52.52"/><rect class="cls-1" x="840.35" y="841.35" width="52.52" height="52.52"/><rect class="cls-5" x="840.35" y="788.83" width="52.52" height="52.52"/><rect class="cls-5" x="840.35" y="736.3" width="52.52" height="52.52"/><rect class="cls-1" x="840.35" y="683.78" width="52.52" height="52.52"/><rect class="cls-1" x="840.35" y="631.26" width="52.52" height="52.52"/><rect class="cls-1" x="840.35" y="578.74" width="52.52" height="52.52"/><rect class="cls-1" x="840.35" y="526.22" width="52.52" height="52.52"/><rect x="840.35" y="473.7" width="52.52" height="52.52"/><rect class="cls-5" x="840.35" y="421.17" width="52.52" height="52.52"/><rect x="840.35" y="368.65" width="52.52" height="52.52"/><rect x="840.35" y="316.13" width="52.52" height="52.52"/><rect x="840.35" y="263.61" width="52.52" height="52.52"/><rect x="840.35" y="211.09" width="52.52" height="52.52"/><rect x="840.35" y="158.57" width="52.52" height="52.52"/><rect x="787.83" y="2364.48" width="52.52" height="52.52"/><rect class="cls-6" x="787.83" y="2311.96" width="52.52" height="52.52"/><rect class="cls-4" x="787.83" y="2259.43" width="52.52" height="52.52"/><rect class="cls-4" x="787.83" y="2206.91" width="52.52" height="52.52"/><rect class="cls-4" x="787.83" y="2154.39" width="52.52" height="52.52"/><rect class="cls-4" x="787.83" y="2101.87" width="52.52" height="52.52"/><rect class="cls-4" x="787.83" y="2049.35" width="52.52" height="52.52"/><rect class="cls-4" x="787.83" y="1996.83" width="52.52" height="52.52"/><rect class="cls-4" x="787.83" y="1944.3" width="52.52" height="52.52"/><rect class="cls-6" x="787.83" y="1891.78" width="52.52" height="52.52"/><rect x="787.83" y="1839.26" width="52.52" height="52.52"/><rect class="cls-3" x="787.83" y="1786.74" width="52.52" height="52.52"/><rect x="787.83" y="1734.22" width="52.52" height="52.52"/><rect class="cls-8" x="787.83" y="1681.7" width="52.52" height="52.52"/><rect x="787.83" y="1629.17" width="52.52" height="52.52"/><rect class="cls-9" x="787.83" y="1576.65" width="52.52" height="52.52"/><rect class="cls-9" x="787.83" y="1524.13" width="52.52" height="52.52"/><rect class="cls-9" x="787.83" y="1471.61" width="52.52" height="52.52"/><rect class="cls-9" x="787.83" y="1419.09" width="52.52" height="52.52"/><rect class="cls-9" x="787.83" y="1366.57" width="52.52" height="52.52"/><rect class="cls-9" x="787.83" y="1314.04" width="52.52" height="52.52"/><rect class="cls-1" x="787.83" y="1261.52" width="52.52" height="52.52"/><rect class="cls-1" x="787.83" y="1209" width="52.52" height="52.52"/><rect class="cls-1" x="787.83" y="1156.48" width="52.52" height="52.52"/><rect x="787.83" y="1103.96" width="52.52" height="52.52"/><rect x="787.83" y="1051.43" width="52.52" height="52.52"/><rect class="cls-5" x="787.83" y="998.91" width="52.52" height="52.52"/><rect class="cls-5" x="787.83" y="946.39" width="52.52" height="52.52"/><rect class="cls-1" x="787.83" y="893.87" width="52.52" height="52.52"/><rect class="cls-1" x="787.83" y="841.35" width="52.52" height="52.52"/><rect x="787.83" y="788.83" width="52.52" height="52.52"/><rect x="787.83" y="736.3" width="52.52" height="52.52"/><rect class="cls-5" x="787.83" y="683.78" width="52.52" height="52.52"/><rect class="cls-1" x="787.83" y="631.26" width="52.52" height="52.52"/><rect class="cls-1" x="787.83" y="578.74" width="52.52" height="52.52"/><rect x="787.83" y="526.22" width="52.52" height="52.52"/><rect x="787.83" y="473.7" width="52.52" height="52.52"/><rect x="787.83" y="421.17" width="52.52" height="52.52"/><rect x="787.83" y="368.65" width="52.52" height="52.52"/><rect class="cls-9" x="787.83" y="316.13" width="52.52" height="52.52"/><rect class="cls-9" x="787.83" y="263.61" width="52.52" height="52.52"/><rect class="cls-9" x="787.83" y="211.09" width="52.52" height="52.52"/><rect class="cls-5" x="787.83" y="158.57" width="52.52" height="52.52"/><rect x="787.83" y="106.04" width="52.52" height="52.52"/><rect x="787.83" y="53.52" width="52.52" height="52.52"/><rect x="735.3" y="2364.48" width="52.52" height="52.52"/><rect class="cls-6" x="735.3" y="2311.96" width="52.52" height="52.52"/><rect class="cls-4" x="735.3" y="2259.43" width="52.52" height="52.52"/><rect class="cls-4" x="735.3" y="2206.91" width="52.52" height="52.52"/><rect class="cls-4" x="735.3" y="2154.39" width="52.52" height="52.52"/><rect class="cls-4" x="735.3" y="2101.87" width="52.52" height="52.52"/><rect class="cls-4" x="735.3" y="2049.35" width="52.52" height="52.52"/><rect class="cls-4" x="735.3" y="1996.83" width="52.52" height="52.52"/><rect class="cls-4" x="735.3" y="1944.3" width="52.52" height="52.52"/><rect class="cls-6" x="735.3" y="1891.78" width="52.52" height="52.52"/><rect x="735.3" y="1839.26" width="52.52" height="52.52"/><rect class="cls-4" x="735.3" y="1786.74" width="52.52" height="52.52"/><rect x="735.3" y="1734.22" width="52.52" height="52.52"/><rect class="cls-8" x="735.3" y="1681.7" width="52.52" height="52.52"/><rect x="735.3" y="1629.17" width="52.52" height="52.52"/><rect x="735.3" y="1576.65" width="52.52" height="52.52"/><rect x="735.3" y="1524.13" width="52.52" height="52.52"/><rect x="735.3" y="1471.61" width="52.52" height="52.52"/><rect x="735.3" y="1419.09" width="52.52" height="52.52"/><rect x="735.3" y="1366.57" width="52.52" height="52.52"/><rect x="735.3" y="1314.04" width="52.52" height="52.52"/><rect x="735.3" y="1261.52" width="52.52" height="52.52"/><rect x="735.3" y="1209" width="52.52" height="52.52"/><rect x="735.3" y="1156.48" width="52.52" height="52.52"/><rect x="735.3" y="1103.96" width="52.52" height="52.52"/><rect x="735.3" y="1051.43" width="52.52" height="52.52"/><rect x="735.3" y="998.91" width="52.52" height="52.52"/><rect x="735.3" y="946.39" width="52.52" height="52.52"/><rect x="735.3" y="893.87" width="52.52" height="52.52"/><rect x="735.3" y="841.35" width="52.52" height="52.52"/><rect x="735.3" y="788.83" width="52.52" height="52.52"/><rect class="cls-9" x="735.3" y="736.3" width="52.52" height="52.52"/><rect x="735.3" y="683.78" width="52.52" height="52.52"/><rect x="735.3" y="631.26" width="52.52" height="52.52"/><rect x="735.3" y="578.74" width="52.52" height="52.52"/><rect x="735.3" y="526.22" width="52.52" height="52.52"/><rect class="cls-5" x="735.3" y="473.7" width="52.52" height="52.52"/><rect x="735.3" y="421.17" width="52.52" height="52.52"/><rect x="735.3" y="368.65" width="52.52" height="52.52"/><rect x="735.3" y="316.13" width="52.52" height="52.52"/><rect x="735.3" y="263.61" width="52.52" height="52.52"/><rect x="735.3" y="211.09" width="52.52" height="52.52"/><rect x="735.3" y="158.57" width="52.52" height="52.52"/><rect class="cls-5" x="735.3" y="106.04" width="52.52" height="52.52"/><rect x="735.3" y="53.52" width="52.52" height="52.52"/><rect x="735.3" y="1" width="52.52" height="52.52"/><rect x="682.78" y="2364.48" width="52.52" height="52.52"/><rect class="cls-6" x="682.78" y="2311.96" width="52.52" height="52.52"/><rect class="cls-4" x="682.78" y="2259.43" width="52.52" height="52.52"/><rect class="cls-4" x="682.78" y="2206.91" width="52.52" height="52.52"/><rect class="cls-4" x="682.78" y="2154.39" width="52.52" height="52.52"/><rect class="cls-4" x="682.78" y="2101.87" width="52.52" height="52.52"/><rect class="cls-4" x="682.78" y="2049.35" width="52.52" height="52.52"/><rect class="cls-4" x="682.78" y="1996.83" width="52.52" height="52.52"/><rect class="cls-4" x="682.78" y="1944.3" width="52.52" height="52.52"/><rect class="cls-6" x="682.78" y="1891.78" width="52.52" height="52.52"/><rect x="682.78" y="1839.26" width="52.52" height="52.52"/><rect class="cls-4" x="682.78" y="1786.74" width="52.52" height="52.52"/><rect x="682.78" y="1734.22" width="52.52" height="52.52"/><rect class="cls-7" x="682.78" y="1681.7" width="52.52" height="52.52"/><rect class="cls-8" x="682.78" y="1629.17" width="52.52" height="52.52"/><rect class="cls-8" x="682.78" y="1576.65" width="52.52" height="52.52"/><rect class="cls-7" x="682.78" y="1524.13" width="52.52" height="52.52"/><rect x="682.78" y="1471.61" width="52.52" height="52.52"/><rect x="682.78" y="1366.57" width="52.52" height="52.52"/><rect class="cls-9" x="682.78" y="1314.04" width="52.52" height="52.52"/><rect x="682.78" y="1261.52" width="52.52" height="52.52"/><rect x="682.78" y="1051.43" width="52.52" height="52.52"/><rect class="cls-5" x="682.78" y="998.91" width="52.52" height="52.52"/><rect x="682.78" y="946.39" width="52.52" height="52.52"/><rect x="682.78" y="788.83" width="52.52" height="52.52"/><rect class="cls-9" x="682.78" y="736.3" width="52.52" height="52.52"/><rect x="682.78" y="683.78" width="52.52" height="52.52"/><rect x="682.78" y="578.74" width="52.52" height="52.52"/><rect class="cls-9" x="682.78" y="526.22" width="52.52" height="52.52"/><rect class="cls-5" x="682.78" y="473.7" width="52.52" height="52.52"/><rect x="682.78" y="421.17" width="52.52" height="52.52"/><rect class="cls-9" x="682.78" y="368.65" width="52.52" height="52.52"/><rect class="cls-5" x="682.78" y="316.13" width="52.52" height="52.52"/><rect x="682.78" y="263.61" width="52.52" height="52.52"/><rect x="682.78" y="158.57" width="52.52" height="52.52"/><rect x="682.78" y="106.04" width="52.52" height="52.52"/><rect class="cls-5" x="682.78" y="53.52" width="52.52" height="52.52"/><rect x="682.78" y="1" width="52.52" height="52.52"/><rect x="630.26" y="2311.96" width="52.52" height="52.52"/><rect class="cls-6" x="630.26" y="2259.43" width="52.52" height="52.52"/><rect class="cls-4" x="630.26" y="2206.91" width="52.52" height="52.52"/><rect class="cls-4" x="630.26" y="2154.39" width="52.52" height="52.52"/><rect class="cls-4" x="630.26" y="2101.87" width="52.52" height="52.52"/><rect class="cls-4" x="630.26" y="2049.35" width="52.52" height="52.52"/><rect class="cls-4" x="630.26" y="1996.83" width="52.52" height="52.52"/><rect class="cls-4" x="630.26" y="1944.3" width="52.52" height="52.52"/><rect class="cls-4" x="630.26" y="1891.78" width="52.52" height="52.52"/><rect class="cls-6" x="630.26" y="1839.26" width="52.52" height="52.52"/><rect x="630.26" y="1786.74" width="52.52" height="52.52"/><rect class="cls-4" x="630.26" y="1734.22" width="52.52" height="52.52"/><rect x="630.26" y="1681.7" width="52.52" height="52.52"/><rect class="cls-8" x="630.26" y="1629.17" width="52.52" height="52.52"/><rect class="cls-10" x="630.26" y="1576.65" width="52.52" height="52.52"/><rect class="cls-8" x="630.26" y="1524.13" width="52.52" height="52.52"/><rect x="630.26" y="1471.61" width="52.52" height="52.52"/><rect x="630.26" y="1314.04" width="52.52" height="52.52"/><rect class="cls-9" x="630.26" y="1261.52" width="52.52" height="52.52"/><rect x="630.26" y="1209" width="52.52" height="52.52"/><rect x="630.26" y="1103.96" width="52.52" height="52.52"/><rect x="630.26" y="1051.43" width="52.52" height="52.52"/><rect class="cls-5" x="630.26" y="998.91" width="52.52" height="52.52"/><rect x="630.26" y="946.39" width="52.52" height="52.52"/><rect x="630.26" y="788.83" width="52.52" height="52.52"/><rect class="cls-9" x="630.26" y="736.3" width="52.52" height="52.52"/><rect x="630.26" y="683.78" width="52.52" height="52.52"/><rect x="630.26" y="578.74" width="52.52" height="52.52"/><rect class="cls-5" x="630.26" y="526.22" width="52.52" height="52.52"/><rect x="630.26" y="473.7" width="52.52" height="52.52"/><rect x="630.26" y="421.17" width="52.52" height="52.52"/><rect x="630.26" y="368.65" width="52.52" height="52.52"/><rect class="cls-5" x="630.26" y="316.13" width="52.52" height="52.52"/><rect x="630.26" y="263.61" width="52.52" height="52.52"/><rect x="630.26" y="106.04" width="52.52" height="52.52"/><rect x="630.26" y="53.52" width="52.52" height="52.52"/><rect x="630.26" y="1" width="52.52" height="52.52"/><rect x="577.74" y="2311.96" width="52.52" height="52.52"/><rect class="cls-6" x="577.74" y="2259.43" width="52.52" height="52.52"/><rect class="cls-6" x="577.74" y="2206.91" width="52.52" height="52.52"/><rect class="cls-4" x="577.74" y="2154.39" width="52.52" height="52.52"/><rect class="cls-4" x="577.74" y="2101.87" width="52.52" height="52.52"/><rect class="cls-4" x="577.74" y="2049.35" width="52.52" height="52.52"/><rect class="cls-4" x="577.74" y="1996.83" width="52.52" height="52.52"/><rect class="cls-4" x="577.74" y="1944.3" width="52.52" height="52.52"/><rect class="cls-4" x="577.74" y="1891.78" width="52.52" height="52.52"/><rect class="cls-6" x="577.74" y="1839.26" width="52.52" height="52.52"/><rect x="577.74" y="1786.74" width="52.52" height="52.52"/><rect class="cls-4" x="577.74" y="1734.22" width="52.52" height="52.52"/><rect x="577.74" y="1681.7" width="52.52" height="52.52"/><rect class="cls-8" x="577.74" y="1629.17" width="52.52" height="52.52"/><rect class="cls-8" x="577.74" y="1576.65" width="52.52" height="52.52"/><rect class="cls-8" x="577.74" y="1524.13" width="52.52" height="52.52"/><rect x="577.74" y="1471.61" width="52.52" height="52.52"/><rect x="577.74" y="1314.04" width="52.52" height="52.52"/><rect class="cls-9" x="577.74" y="1261.52" width="52.52" height="52.52"/><rect x="577.74" y="1209" width="52.52" height="52.52"/><rect x="577.74" y="1103.96" width="52.52" height="52.52"/><rect class="cls-5" x="577.74" y="1051.43" width="52.52" height="52.52"/><rect x="577.74" y="998.91" width="52.52" height="52.52"/><rect x="577.74" y="736.3" width="52.52" height="52.52"/><rect class="cls-5" x="577.74" y="683.78" width="52.52" height="52.52"/><rect x="577.74" y="631.26" width="52.52" height="52.52"/><rect class="cls-9" x="577.74" y="578.74" width="52.52" height="52.52"/><rect class="cls-5" x="577.74" y="526.22" width="52.52" height="52.52"/><rect x="577.74" y="473.7" width="52.52" height="52.52"/><rect x="577.74" y="368.65" width="52.52" height="52.52"/><rect class="cls-9" x="577.74" y="316.13" width="52.52" height="52.52"/><rect class="cls-2" x="577.74" y="263.61" width="52.52" height="52.52"/><rect x="577.74" y="211.09" width="52.52" height="52.52"/><rect x="577.74" y="1" width="52.52" height="52.52"/><rect x="525.22" y="2259.43" width="52.52" height="52.52"/><rect x="525.22" y="2206.91" width="52.52" height="52.52"/><rect class="cls-6" x="525.22" y="2154.39" width="52.52" height="52.52"/><rect class="cls-6" x="525.22" y="2101.87" width="52.52" height="52.52"/><rect class="cls-6" x="525.22" y="2049.35" width="52.52" height="52.52"/><rect class="cls-6" x="525.22" y="1996.83" width="52.52" height="52.52"/><rect class="cls-6" x="525.22" y="1944.3" width="52.52" height="52.52"/><rect class="cls-6" x="525.22" y="1891.78" width="52.52" height="52.52"/><rect class="cls-6" x="525.22" y="1839.26" width="52.52" height="52.52"/><rect x="525.22" y="1786.74" width="52.52" height="52.52"/><rect class="cls-6" x="525.22" y="1734.22" width="52.52" height="52.52"/><rect x="525.22" y="1681.7" width="52.52" height="52.52"/><rect class="cls-7" x="525.22" y="1629.17" width="52.52" height="52.52"/><rect class="cls-8" x="525.22" y="1576.65" width="52.52" height="52.52"/><rect x="525.22" y="1524.13" width="52.52" height="52.52"/><rect x="525.22" y="1314.04" width="52.52" height="52.52"/><rect class="cls-9" x="525.22" y="1261.52" width="52.52" height="52.52"/><rect x="525.22" y="1209" width="52.52" height="52.52"/><rect x="525.22" y="1103.96" width="52.52" height="52.52"/><rect class="cls-2" x="525.22" y="1051.43" width="52.52" height="52.52"/><rect x="525.22" y="998.91" width="52.52" height="52.52"/><rect x="525.22" y="788.83" width="52.52" height="52.52"/><rect x="525.22" y="736.3" width="52.52" height="52.52"/><rect x="525.22" y="683.78" width="52.52" height="52.52"/><rect class="cls-9" x="525.22" y="631.26" width="52.52" height="52.52"/><rect class="cls-5" x="525.22" y="578.74" width="52.52" height="52.52"/><rect class="cls-1" x="525.22" y="526.22" width="52.52" height="52.52"/><rect x="525.22" y="473.7" width="52.52" height="52.52"/><rect x="525.22" y="316.13" width="52.52" height="52.52"/><rect class="cls-2" x="525.22" y="263.61" width="52.52" height="52.52"/><rect x="525.22" y="211.09" width="52.52" height="52.52"/><rect x="525.22" y="1" width="52.52" height="52.52"/><rect x="472.7" y="2154.39" width="52.52" height="52.52"/><rect x="472.7" y="2101.87" width="52.52" height="52.52"/><rect x="472.7" y="2049.35" width="52.52" height="52.52"/><rect x="472.7" y="1996.83" width="52.52" height="52.52"/><rect x="472.7" y="1944.3" width="52.52" height="52.52"/><rect class="cls-6" x="472.7" y="1891.78" width="52.52" height="52.52"/><rect class="cls-6" x="472.7" y="1839.26" width="52.52" height="52.52"/><rect class="cls-6" x="472.7" y="1786.74" width="52.52" height="52.52"/><rect x="472.7" y="1734.22" width="52.52" height="52.52"/><rect class="cls-6" x="472.7" y="1681.7" width="52.52" height="52.52"/><rect x="472.7" y="1629.17" width="52.52" height="52.52"/><rect x="472.7" y="1576.65" width="52.52" height="52.52"/><rect x="472.7" y="1524.13" width="52.52" height="52.52"/><rect x="472.7" y="1314.04" width="52.52" height="52.52"/><rect x="472.7" y="1261.52" width="52.52" height="52.52"/><rect x="472.7" y="1156.48" width="52.52" height="52.52"/><rect class="cls-5" x="472.7" y="1103.96" width="52.52" height="52.52"/><rect x="472.7" y="1051.43" width="52.52" height="52.52"/><rect x="472.7" y="841.35" width="52.52" height="52.52"/><rect class="cls-1" x="472.7" y="788.83" width="52.52" height="52.52"/><rect class="cls-1" x="472.7" y="736.3" width="52.52" height="52.52"/><rect class="cls-5" x="472.7" y="683.78" width="52.52" height="52.52"/><rect class="cls-5" x="472.7" y="631.26" width="52.52" height="52.52"/><rect class="cls-1" x="472.7" y="578.74" width="52.52" height="52.52"/><rect x="472.7" y="526.22" width="52.52" height="52.52"/><rect x="472.7" y="316.13" width="52.52" height="52.52"/><rect class="cls-5" x="472.7" y="263.61" width="52.52" height="52.52"/><rect x="472.7" y="211.09" width="52.52" height="52.52"/><rect x="472.7" y="1" width="52.52" height="52.52"/><rect x="420.17" y="1891.78" width="52.52" height="52.52"/><rect x="420.17" y="1839.26" width="52.52" height="52.52"/><rect x="420.17" y="1786.74" width="52.52" height="52.52"/><rect x="420.17" y="1734.22" width="52.52" height="52.52"/><rect class="cls-6" x="420.17" y="1681.7" width="52.52" height="52.52"/><rect class="cls-6" x="420.17" y="1629.17" width="52.52" height="52.52"/><rect class="cls-6" x="420.17" y="1576.65" width="52.52" height="52.52"/><rect x="420.17" y="1524.13" width="52.52" height="52.52"/><rect x="420.17" y="1314.04" width="52.52" height="52.52"/><rect x="420.17" y="1261.52" width="52.52" height="52.52"/><rect x="420.17" y="1156.48" width="52.52" height="52.52"/><rect class="cls-5" x="420.17" y="1103.96" width="52.52" height="52.52"/><rect x="420.17" y="1051.43" width="52.52" height="52.52"/><rect x="420.17" y="946.39" width="52.52" height="52.52"/><rect x="420.17" y="893.87" width="52.52" height="52.52"/><rect x="420.17" y="841.35" width="52.52" height="52.52"/><rect x="420.17" y="788.83" width="52.52" height="52.52"/><rect x="420.17" y="736.3" width="52.52" height="52.52"/><rect x="420.17" y="683.78" width="52.52" height="52.52"/><rect x="420.17" y="631.26" width="52.52" height="52.52"/><rect x="420.17" y="578.74" width="52.52" height="52.52"/><rect x="420.17" y="316.13" width="52.52" height="52.52"/><rect class="cls-5" x="420.17" y="263.61" width="52.52" height="52.52"/><rect x="420.17" y="211.09" width="52.52" height="52.52"/><rect x="420.17" y="53.52" width="52.52" height="52.52"/><rect x="367.65" y="1681.7" width="52.52" height="52.52"/><rect x="367.65" y="1629.17" width="52.52" height="52.52"/><rect x="367.65" y="1576.65" width="52.52" height="52.52"/><rect x="367.65" y="1366.57" width="52.52" height="52.52"/><rect x="367.65" y="1314.04" width="52.52" height="52.52"/><rect x="367.65" y="1156.48" width="52.52" height="52.52"/><rect class="cls-2" x="367.65" y="1103.96" width="52.52" height="52.52"/><rect x="367.65" y="1051.43" width="52.52" height="52.52"/><rect x="367.65" y="683.78" width="52.52" height="52.52"/><rect class="cls-9" x="367.65" y="631.26" width="52.52" height="52.52"/><rect class="cls-2" x="367.65" y="578.74" width="52.52" height="52.52"/><rect x="367.65" y="526.22" width="52.52" height="52.52"/><rect x="367.65" y="316.13" width="52.52" height="52.52"/><rect class="cls-9" x="367.65" y="263.61" width="52.52" height="52.52"/><rect class="cls-2" x="367.65" y="211.09" width="52.52" height="52.52"/><rect x="367.65" y="158.57" width="52.52" height="52.52"/><rect x="367.65" y="53.52" width="52.52" height="52.52"/><rect x="315.13" y="1156.48" width="52.52" height="52.52"/><rect class="cls-2" x="315.13" y="1103.96" width="52.52" height="52.52"/><rect x="315.13" y="1051.43" width="52.52" height="52.52"/><rect x="315.13" y="631.26" width="52.52" height="52.52"/><rect class="cls-2" x="315.13" y="578.74" width="52.52" height="52.52"/><rect x="315.13" y="526.22" width="52.52" height="52.52"/><rect x="315.13" y="263.61" width="52.52" height="52.52"/><rect class="cls-1" x="315.13" y="211.09" width="52.52" height="52.52"/><rect x="315.13" y="158.57" width="52.52" height="52.52"/><rect x="262.61" y="1209" width="52.52" height="52.52"/><rect class="cls-1" x="262.61" y="1156.48" width="52.52" height="52.52"/><rect class="cls-1" x="262.61" y="1103.96" width="52.52" height="52.52"/><rect x="262.61" y="1051.43" width="52.52" height="52.52"/><rect x="262.61" y="631.26" width="52.52" height="52.52"/><rect class="cls-2" x="262.61" y="578.74" width="52.52" height="52.52"/><rect x="262.61" y="526.22" width="52.52" height="52.52"/><rect x="262.61" y="263.61" width="52.52" height="52.52"/><rect class="cls-1" x="262.61" y="211.09" width="52.52" height="52.52"/><rect x="262.61" y="158.57" width="52.52" height="52.52"/><rect x="210.09" y="1209" width="52.52" height="52.52"/><rect x="210.09" y="1156.48" width="52.52" height="52.52"/><rect x="210.09" y="1103.96" width="52.52" height="52.52"/><rect x="210.09" y="631.26" width="52.52" height="52.52"/><rect class="cls-1" x="210.09" y="578.74" width="52.52" height="52.52"/><rect x="210.09" y="526.22" width="52.52" height="52.52"/><rect x="210.09" y="211.09" width="52.52" height="52.52"/><rect x="210.09" y="158.57" width="52.52" height="52.52"/><rect x="157.57" y="1261.52" width="52.52" height="52.52"/><rect x="157.57" y="1209" width="52.52" height="52.52"/><rect x="157.57" y="631.26" width="52.52" height="52.52"/><rect class="cls-1" x="157.57" y="578.74" width="52.52" height="52.52"/><rect x="157.57" y="526.22" width="52.52" height="52.52"/><rect x="157.57" y="263.61" width="52.52" height="52.52"/><rect x="157.57" y="211.09" width="52.52" height="52.52"/><rect x="105.04" y="578.74" width="52.52" height="52.52"/><rect x="105.04" y="526.22" width="52.52" height="52.52"/><rect x="105.04" y="316.13" width="52.52" height="52.52"/><rect x="105.04" y="263.61" width="52.52" height="52.52"/><rect x="52.52" y="578.74" width="52.52" height="52.52"/><rect x="52.52" y="526.22" width="52.52" height="52.52"/><rect y="631.26" width="52.52" height="52.52"/><rect y="578.74" width="52.52" height="52.52"/></svg>