<svg id="_ÎÓÈ_5" data-name="—ÎÓÈ_5" xmlns="http://www.w3.org/2000/svg" viewBox="0 0 1260 2432"><defs><style>.cls-1{fill:#48ad57;}.cls-2{fill:#ff000e;}.cls-3{fill:#93db5b;}.cls-4{fill:#ff6026;}.cls-5{fill:#ff1c22;}.cls-6{fill:#c90005;}.cls-7{fill:#910003;}.cls-8{fill:#452511;}.cls-9{fill:#8a4923;}.cls-10{fill:#bf6530;}.cls-11{fill:#614949;}.cls-12{fill:#b38686;}.cls-13{fill:#8a6868;}</style></defs><rect x="1208.25" y="517.84" width="50.29" height="50.29"/><rect x="1208.25" y="467.55" width="50.29" height="50.29"/><rect x="1208.25" y="366.97" width="50.29" height="50.29"/><rect x="1208.25" y="316.68" width="50.29" height="50.29"/><rect x="1157.96" y="618.43" width="50.29" height="50.29"/><rect x="1157.96" y="568.13" width="50.29" height="50.29"/><rect x="1157.96" y="517.84" width="50.29" height="50.29"/><rect class="cls-1" x="1157.96" y="467.55" width="50.29" height="50.29"/><rect x="1157.96" y="417.26" width="50.29" height="50.29"/><rect class="cls-2" x="1157.96" y="366.97" width="50.29" height="50.29"/><rect class="cls-2" x="1157.96" y="316.68" width="50.29" height="50.29"/><rect x="1157.96" y="266.38" width="50.29" height="50.29"/><rect x="1107.66" y="769.3" width="50.29" height="50.29"/><rect x="1107.66" y="719.01" width="50.29" height="50.29"/><rect x="1107.66" y="668.72" width="50.29" height="50.29"/><rect class="cls-3" x="1107.66" y="618.43" width="50.29" height="50.29"/><rect class="cls-3" x="1107.66" y="568.13" width="50.29" height="50.29"/><rect x="1107.66" y="517.84" width="50.29" height="50.29"/><rect x="1107.66" y="467.55" width="50.29" height="50.29"/><rect class="cls-4" x="1107.66" y="417.26" width="50.29" height="50.29"/><rect class="cls-2" x="1107.66" y="366.97" width="50.29" height="50.29"/><rect class="cls-2" x="1107.66" y="316.68" width="50.29" height="50.29"/><rect x="1107.66" y="266.38" width="50.29" height="50.29"/><rect x="1107.66" y="216.09" width="50.29" height="50.29"/><rect x="1057.37" y="1724.84" width="50.29" height="50.29"/><rect x="1057.37" y="1674.55" width="50.29" height="50.29"/><rect x="1057.37" y="1624.26" width="50.29" height="50.29"/><rect x="1057.37" y="869.88" width="50.29" height="50.29"/><rect x="1057.37" y="819.59" width="50.29" height="50.29"/><rect class="cls-1" x="1057.37" y="769.3" width="50.29" height="50.29"/><rect class="cls-1" x="1057.37" y="719.01" width="50.29" height="50.29"/><rect x="1057.37" y="668.72" width="50.29" height="50.29"/><rect class="cls-3" x="1057.37" y="618.43" width="50.29" height="50.29"/><rect x="1057.37" y="568.13" width="50.29" height="50.29"/><rect class="cls-3" x="1057.37" y="517.84" width="50.29" height="50.29"/><rect class="cls-3" x="1057.37" y="467.55" width="50.29" height="50.29"/><rect x="1057.37" y="417.26" width="50.29" height="50.29"/><rect class="cls-4" x="1057.37" y="366.97" width="50.29" height="50.29"/><rect class="cls-4" x="1057.37" y="316.68" width="50.29" height="50.29"/><rect x="1057.37" y="266.38" width="50.29" height="50.29"/><rect class="cls-1" x="1057.37" y="216.09" width="50.29" height="50.29"/><rect x="1057.37" y="165.8" width="50.29" height="50.29"/><rect x="1007.08" y="1926.01" width="50.29" height="50.29"/><rect x="1007.08" y="1875.72" width="50.29" height="50.29"/><rect x="1007.08" y="1825.43" width="50.29" height="50.29"/><rect x="1007.08" y="1775.13" width="50.29" height="50.29"/><rect class="cls-5" x="1007.08" y="1724.84" width="50.29" height="50.29"/><rect class="cls-6" x="1007.08" y="1674.55" width="50.29" height="50.29"/><rect class="cls-6" x="1007.08" y="1624.26" width="50.29" height="50.29"/><rect x="1007.08" y="1573.97" width="50.29" height="50.29"/><rect x="1007.08" y="920.18" width="50.29" height="50.29"/><rect class="cls-2" x="1007.08" y="869.88" width="50.29" height="50.29"/><rect class="cls-2" x="1007.08" y="819.59" width="50.29" height="50.29"/><rect x="1007.08" y="769.3" width="50.29" height="50.29"/><rect class="cls-1" x="1007.08" y="719.01" width="50.29" height="50.29"/><rect x="1007.08" y="668.72" width="50.29" height="50.29"/><rect class="cls-1" x="1007.08" y="618.43" width="50.29" height="50.29"/><rect x="1007.08" y="568.13" width="50.29" height="50.29"/><rect x="1007.08" y="517.84" width="50.29" height="50.29"/><rect x="1007.08" y="467.55" width="50.29" height="50.29"/><rect x="1007.08" y="417.26" width="50.29" height="50.29"/><rect x="1007.08" y="366.97" width="50.29" height="50.29"/><rect x="1007.08" y="316.68" width="50.29" height="50.29"/><rect x="1007.08" y="266.38" width="50.29" height="50.29"/><rect class="cls-1" x="1007.08" y="216.09" width="50.29" height="50.29"/><rect class="cls-1" x="1007.08" y="165.8" width="50.29" height="50.29"/><rect x="1007.08" y="115.51" width="50.29" height="50.29"/><rect x="956.79" y="2177.47" width="50.29" height="50.29"/><rect x="956.79" y="2127.18" width="50.29" height="50.29"/><rect x="956.79" y="2076.88" width="50.29" height="50.29"/><rect x="956.79" y="2026.59" width="50.29" height="50.29"/><rect x="956.79" y="1976.3" width="50.29" height="50.29"/><rect class="cls-6" x="956.79" y="1926.01" width="50.29" height="50.29"/><rect class="cls-6" x="956.79" y="1875.72" width="50.29" height="50.29"/><rect class="cls-7" x="956.79" y="1825.43" width="50.29" height="50.29"/><rect x="956.79" y="1775.13" width="50.29" height="50.29"/><rect class="cls-5" x="956.79" y="1724.84" width="50.29" height="50.29"/><rect x="956.79" y="1674.55" width="50.29" height="50.29"/><rect x="956.79" y="1624.26" width="50.29" height="50.29"/><rect x="956.79" y="1573.97" width="50.29" height="50.29"/><rect x="956.79" y="970.47" width="50.29" height="50.29"/><rect class="cls-4" x="956.79" y="920.18" width="50.29" height="50.29"/><rect class="cls-2" x="956.79" y="869.88" width="50.29" height="50.29"/><rect class="cls-2" x="956.79" y="819.59" width="50.29" height="50.29"/><rect x="956.79" y="769.3" width="50.29" height="50.29"/><rect class="cls-1" x="956.79" y="719.01" width="50.29" height="50.29"/><rect x="956.79" y="668.72" width="50.29" height="50.29"/><rect x="956.79" y="618.43" width="50.29" height="50.29"/><rect class="cls-1" x="956.79" y="568.13" width="50.29" height="50.29"/><rect class="cls-1" x="956.79" y="517.84" width="50.29" height="50.29"/><rect x="956.79" y="467.55" width="50.29" height="50.29"/><rect class="cls-1" x="956.79" y="417.26" width="50.29" height="50.29"/><rect x="956.79" y="366.97" width="50.29" height="50.29"/><rect class="cls-1" x="956.79" y="316.68" width="50.29" height="50.29"/><rect x="956.79" y="266.38" width="50.29" height="50.29"/><rect x="956.79" y="216.09" width="50.29" height="50.29"/><rect class="cls-1" x="956.79" y="165.8" width="50.29" height="50.29"/><rect x="956.79" y="115.51" width="50.29" height="50.29"/><rect x="906.5" y="2278.05" width="50.29" height="50.29"/><rect x="906.5" y="2227.76" width="50.29" height="50.29"/><rect class="cls-6" x="906.5" y="2177.47" width="50.29" height="50.29"/><rect class="cls-6" x="906.5" y="2127.18" width="50.29" height="50.29"/><rect class="cls-6" x="906.5" y="2076.88" width="50.29" height="50.29"/><rect class="cls-6" x="906.5" y="2026.59" width="50.29" height="50.29"/><rect class="cls-6" x="906.5" y="1976.3" width="50.29" height="50.29"/><rect class="cls-6" x="906.5" y="1926.01" width="50.29" height="50.29"/><rect class="cls-7" x="906.5" y="1875.72" width="50.29" height="50.29"/><rect x="906.5" y="1825.43" width="50.29" height="50.29"/><rect class="cls-5" x="906.5" y="1775.13" width="50.29" height="50.29"/><rect x="906.5" y="1724.84" width="50.29" height="50.29"/><rect class="cls-8" x="906.5" y="1674.55" width="50.29" height="50.29"/><rect class="cls-9" x="906.5" y="1624.26" width="50.29" height="50.29"/><rect x="906.5" y="1573.97" width="50.29" height="50.29"/><rect x="906.5" y="1071.05" width="50.29" height="50.29"/><rect x="906.5" y="1020.76" width="50.29" height="50.29"/><rect x="906.5" y="970.47" width="50.29" height="50.29"/><rect x="906.5" y="920.18" width="50.29" height="50.29"/><rect class="cls-4" x="906.5" y="869.88" width="50.29" height="50.29"/><rect class="cls-4" x="906.5" y="819.59" width="50.29" height="50.29"/><rect x="906.5" y="769.3" width="50.29" height="50.29"/><rect x="906.5" y="719.01" width="50.29" height="50.29"/><rect class="cls-1" x="906.5" y="668.72" width="50.29" height="50.29"/><rect x="906.5" y="618.43" width="50.29" height="50.29"/><rect x="906.5" y="568.13" width="50.29" height="50.29"/><rect x="906.5" y="517.84" width="50.29" height="50.29"/><rect x="906.5" y="467.55" width="50.29" height="50.29"/><rect class="cls-1" x="906.5" y="417.26" width="50.29" height="50.29"/><rect x="906.5" y="366.97" width="50.29" height="50.29"/><rect class="cls-1" x="906.5" y="316.68" width="50.29" height="50.29"/><rect x="906.5" y="266.38" width="50.29" height="50.29"/><rect class="cls-3" x="906.5" y="216.09" width="50.29" height="50.29"/><rect x="906.5" y="165.8" width="50.29" height="50.29"/><rect class="cls-1" x="906.5" y="115.51" width="50.29" height="50.29"/><rect x="906.5" y="65.22" width="50.29" height="50.29"/><rect x="856.21" y="2328.34" width="50.29" height="50.29"/><rect class="cls-7" x="856.21" y="2278.05" width="50.29" height="50.29"/><rect class="cls-6" x="856.21" y="2227.76" width="50.29" height="50.29"/><rect class="cls-6" x="856.21" y="2177.47" width="50.29" height="50.29"/><rect class="cls-6" x="856.21" y="2127.18" width="50.29" height="50.29"/><rect class="cls-5" x="856.21" y="2076.88" width="50.29" height="50.29"/><rect class="cls-5" x="856.21" y="2026.59" width="50.29" height="50.29"/><rect class="cls-5" x="856.21" y="1976.3" width="50.29" height="50.29"/><rect class="cls-6" x="856.21" y="1926.01" width="50.29" height="50.29"/><rect class="cls-7" x="856.21" y="1875.72" width="50.29" height="50.29"/><rect x="856.21" y="1825.43" width="50.29" height="50.29"/><rect class="cls-5" x="856.21" y="1775.13" width="50.29" height="50.29"/><rect x="856.21" y="1724.84" width="50.29" height="50.29"/><rect class="cls-9" x="856.21" y="1674.55" width="50.29" height="50.29"/><rect class="cls-8" x="856.21" y="1624.26" width="50.29" height="50.29"/><rect class="cls-10" x="856.21" y="1573.97" width="50.29" height="50.29"/><rect x="856.21" y="1523.68" width="50.29" height="50.29"/><rect x="856.21" y="1171.63" width="50.29" height="50.29"/><rect x="856.21" y="1121.34" width="50.29" height="50.29"/><rect class="cls-11" x="856.21" y="1071.05" width="50.29" height="50.29"/><rect class="cls-11" x="856.21" y="1020.76" width="50.29" height="50.29"/><rect x="856.21" y="970.47" width="50.29" height="50.29"/><rect class="cls-1" x="856.21" y="920.18" width="50.29" height="50.29"/><rect x="856.21" y="869.88" width="50.29" height="50.29"/><rect x="856.21" y="819.59" width="50.29" height="50.29"/><rect class="cls-1" x="856.21" y="769.3" width="50.29" height="50.29"/><rect class="cls-1" x="856.21" y="719.01" width="50.29" height="50.29"/><rect x="856.21" y="668.72" width="50.29" height="50.29"/><rect class="cls-1" x="856.21" y="618.43" width="50.29" height="50.29"/><rect x="856.21" y="568.13" width="50.29" height="50.29"/><rect class="cls-2" x="856.21" y="517.84" width="50.29" height="50.29"/><rect class="cls-2" x="856.21" y="467.55" width="50.29" height="50.29"/><rect x="856.21" y="417.26" width="50.29" height="50.29"/><rect class="cls-1" x="856.21" y="366.97" width="50.29" height="50.29"/><rect x="856.21" y="316.68" width="50.29" height="50.29"/><rect class="cls-3" x="856.21" y="266.38" width="50.29" height="50.29"/><rect class="cls-3" x="856.21" y="216.09" width="50.29" height="50.29"/><rect x="856.21" y="165.8" width="50.29" height="50.29"/><rect class="cls-1" x="856.21" y="115.51" width="50.29" height="50.29"/><rect x="856.21" y="65.22" width="50.29" height="50.29"/><rect x="805.91" y="2328.34" width="50.29" height="50.29"/><rect class="cls-7" x="805.91" y="2278.05" width="50.29" height="50.29"/><rect class="cls-6" x="805.91" y="2227.76" width="50.29" height="50.29"/><rect class="cls-5" x="805.91" y="2177.47" width="50.29" height="50.29"/><rect class="cls-5" x="805.91" y="2127.18" width="50.29" height="50.29"/><rect class="cls-5" x="805.91" y="2076.88" width="50.29" height="50.29"/><rect class="cls-5" x="805.91" y="2026.59" width="50.29" height="50.29"/><rect class="cls-5" x="805.91" y="1976.3" width="50.29" height="50.29"/><rect class="cls-6" x="805.91" y="1926.01" width="50.29" height="50.29"/><rect class="cls-7" x="805.91" y="1875.72" width="50.29" height="50.29"/><rect x="805.91" y="1825.43" width="50.29" height="50.29"/><rect class="cls-6" x="805.91" y="1775.13" width="50.29" height="50.29"/><rect x="805.91" y="1724.84" width="50.29" height="50.29"/><rect class="cls-9" x="805.91" y="1674.55" width="50.29" height="50.29"/><rect class="cls-9" x="805.91" y="1624.26" width="50.29" height="50.29"/><rect class="cls-8" x="805.91" y="1573.97" width="50.29" height="50.29"/><rect x="805.91" y="1523.68" width="50.29" height="50.29"/><rect x="805.91" y="1221.93" width="50.29" height="50.29"/><rect class="cls-12" x="805.91" y="1171.63" width="50.29" height="50.29"/><rect class="cls-13" x="805.91" y="1121.34" width="50.29" height="50.29"/><rect x="805.91" y="1071.05" width="50.29" height="50.29"/><rect x="805.91" y="1020.76" width="50.29" height="50.29"/><rect class="cls-1" x="805.91" y="970.47" width="50.29" height="50.29"/><rect class="cls-1" x="805.91" y="920.18" width="50.29" height="50.29"/><rect x="805.91" y="869.88" width="50.29" height="50.29"/><rect class="cls-1" x="805.91" y="819.59" width="50.29" height="50.29"/><rect x="805.91" y="769.3" width="50.29" height="50.29"/><rect class="cls-1" x="805.91" y="719.01" width="50.29" height="50.29"/><rect class="cls-1" x="805.91" y="668.72" width="50.29" height="50.29"/><rect x="805.91" y="618.43" width="50.29" height="50.29"/><rect class="cls-4" x="805.91" y="568.13" width="50.29" height="50.29"/><rect class="cls-2" x="805.91" y="517.84" width="50.29" height="50.29"/><rect class="cls-2" x="805.91" y="467.55" width="50.29" height="50.29"/><rect x="805.91" y="417.26" width="50.29" height="50.29"/><rect class="cls-1" x="805.91" y="366.97" width="50.29" height="50.29"/><rect x="805.91" y="316.68" width="50.29" height="50.29"/><rect x="805.91" y="266.38" width="50.29" height="50.29"/><rect x="805.91" y="216.09" width="50.29" height="50.29"/><rect x="805.91" y="165.8" width="50.29" height="50.29"/><rect x="805.91" y="115.51" width="50.29" height="50.29"/><rect x="805.91" y="65.22" width="50.29" height="50.29"/><rect x="755.62" y="2378.63" width="50.29" height="50.29"/><rect class="cls-7" x="755.62" y="2328.34" width="50.29" height="50.29"/><rect class="cls-6" x="755.62" y="2278.05" width="50.29" height="50.29"/><rect class="cls-5" x="755.62" y="2227.76" width="50.29" height="50.29"/><rect class="cls-5" x="755.62" y="2177.47" width="50.29" height="50.29"/><rect class="cls-6" x="755.62" y="2127.18" width="50.29" height="50.29"/><rect class="cls-6" x="755.62" y="2076.88" width="50.29" height="50.29"/><rect class="cls-6" x="755.62" y="2026.59" width="50.29" height="50.29"/><rect class="cls-6" x="755.62" y="1976.3" width="50.29" height="50.29"/><rect class="cls-7" x="755.62" y="1926.01" width="50.29" height="50.29"/><rect x="755.62" y="1875.72" width="50.29" height="50.29"/><rect class="cls-5" x="755.62" y="1825.43" width="50.29" height="50.29"/><rect x="755.62" y="1775.13" width="50.29" height="50.29"/><rect class="cls-10" x="755.62" y="1724.84" width="50.29" height="50.29"/><rect class="cls-8" x="755.62" y="1674.55" width="50.29" height="50.29"/><rect x="755.62" y="1624.26" width="50.29" height="50.29"/><rect class="cls-9" x="755.62" y="1573.97" width="50.29" height="50.29"/><rect x="755.62" y="1523.68" width="50.29" height="50.29"/><rect x="755.62" y="1322.51" width="50.29" height="50.29"/><rect x="755.62" y="1272.22" width="50.29" height="50.29"/><rect class="cls-12" x="755.62" y="1221.93" width="50.29" height="50.29"/><rect x="755.62" y="1171.63" width="50.29" height="50.29"/><rect x="755.62" y="1121.34" width="50.29" height="50.29"/><rect x="755.62" y="1020.76" width="50.29" height="50.29"/><rect x="755.62" y="970.47" width="50.29" height="50.29"/><rect x="755.62" y="920.18" width="50.29" height="50.29"/><rect x="755.62" y="869.88" width="50.29" height="50.29"/><rect class="cls-1" x="755.62" y="819.59" width="50.29" height="50.29"/><rect x="755.62" y="769.3" width="50.29" height="50.29"/><rect class="cls-3" x="755.62" y="719.01" width="50.29" height="50.29"/><rect x="755.62" y="668.72" width="50.29" height="50.29"/><rect class="cls-1" x="755.62" y="618.43" width="50.29" height="50.29"/><rect x="755.62" y="568.13" width="50.29" height="50.29"/><rect class="cls-4" x="755.62" y="517.84" width="50.29" height="50.29"/><rect class="cls-4" x="755.62" y="467.55" width="50.29" height="50.29"/><rect x="755.62" y="417.26" width="50.29" height="50.29"/><rect x="755.62" y="366.97" width="50.29" height="50.29"/><rect class="cls-1" x="755.62" y="316.68" width="50.29" height="50.29"/><rect x="755.62" y="266.38" width="50.29" height="50.29"/><rect class="cls-3" x="755.62" y="216.09" width="50.29" height="50.29"/><rect x="755.62" y="165.8" width="50.29" height="50.29"/><rect class="cls-2" x="755.62" y="115.51" width="50.29" height="50.29"/><rect class="cls-2" x="755.62" y="65.22" width="50.29" height="50.29"/><rect x="755.62" y="14.93" width="50.29" height="50.29"/><rect x="705.33" y="2378.63" width="50.29" height="50.29"/><rect class="cls-7" x="705.33" y="2328.34" width="50.29" height="50.29"/><rect class="cls-6" x="705.33" y="2278.05" width="50.29" height="50.29"/><rect class="cls-6" x="705.33" y="2227.76" width="50.29" height="50.29"/><rect class="cls-6" x="705.33" y="2177.47" width="50.29" height="50.29"/><rect class="cls-6" x="705.33" y="2127.18" width="50.29" height="50.29"/><rect class="cls-6" x="705.33" y="2076.88" width="50.29" height="50.29"/><rect class="cls-6" x="705.33" y="2026.59" width="50.29" height="50.29"/><rect class="cls-6" x="705.33" y="1976.3" width="50.29" height="50.29"/><rect class="cls-7" x="705.33" y="1926.01" width="50.29" height="50.29"/><rect x="705.33" y="1875.72" width="50.29" height="50.29"/><rect class="cls-5" x="705.33" y="1825.43" width="50.29" height="50.29"/><rect x="705.33" y="1775.13" width="50.29" height="50.29"/><rect class="cls-8" x="705.33" y="1724.84" width="50.29" height="50.29"/><rect x="705.33" y="1674.55" width="50.29" height="50.29"/><rect class="cls-12" x="705.33" y="1624.26" width="50.29" height="50.29"/><rect x="705.33" y="1573.97" width="50.29" height="50.29"/><rect x="705.33" y="1523.68" width="50.29" height="50.29"/><rect x="705.33" y="1473.38" width="50.29" height="50.29"/><rect x="705.33" y="1423.09" width="50.29" height="50.29"/><rect x="705.33" y="1372.8" width="50.29" height="50.29"/><rect class="cls-12" x="705.33" y="1322.51" width="50.29" height="50.29"/><rect class="cls-13" x="705.33" y="1272.22" width="50.29" height="50.29"/><rect x="705.33" y="1221.93" width="50.29" height="50.29"/><rect x="705.33" y="1071.05" width="50.29" height="50.29"/><rect class="cls-1" x="705.33" y="1020.76" width="50.29" height="50.29"/><rect class="cls-1" x="705.33" y="970.47" width="50.29" height="50.29"/><rect x="705.33" y="920.18" width="50.29" height="50.29"/><rect class="cls-1" x="705.33" y="869.88" width="50.29" height="50.29"/><rect x="705.33" y="819.59" width="50.29" height="50.29"/><rect x="705.33" y="769.3" width="50.29" height="50.29"/><rect class="cls-3" x="705.33" y="719.01" width="50.29" height="50.29"/><rect x="705.33" y="668.72" width="50.29" height="50.29"/><rect x="705.33" y="618.43" width="50.29" height="50.29"/><rect x="705.33" y="568.13" width="50.29" height="50.29"/><rect x="705.33" y="517.84" width="50.29" height="50.29"/><rect x="705.33" y="467.55" width="50.29" height="50.29"/><rect class="cls-3" x="705.33" y="417.26" width="50.29" height="50.29"/><rect class="cls-3" x="705.33" y="366.97" width="50.29" height="50.29"/><rect x="705.33" y="316.68" width="50.29" height="50.29"/><rect x="705.33" y="266.38" width="50.29" height="50.29"/><rect x="705.33" y="216.09" width="50.29" height="50.29"/><rect class="cls-4" x="705.33" y="165.8" width="50.29" height="50.29"/><rect class="cls-2" x="705.33" y="115.51" width="50.29" height="50.29"/><rect class="cls-2" x="705.33" y="65.22" width="50.29" height="50.29"/><rect x="705.33" y="14.93" width="50.29" height="50.29"/><rect x="655.04" y="2378.63" width="50.29" height="50.29"/><rect class="cls-7" x="655.04" y="2328.34" width="50.29" height="50.29"/><rect class="cls-6" x="655.04" y="2278.05" width="50.29" height="50.29"/><rect class="cls-6" x="655.04" y="2227.76" width="50.29" height="50.29"/><rect class="cls-6" x="655.04" y="2177.47" width="50.29" height="50.29"/><rect class="cls-6" x="655.04" y="2127.18" width="50.29" height="50.29"/><rect class="cls-6" x="655.04" y="2076.88" width="50.29" height="50.29"/><rect class="cls-6" x="655.04" y="2026.59" width="50.29" height="50.29"/><rect class="cls-6" x="655.04" y="1976.3" width="50.29" height="50.29"/><rect class="cls-7" x="655.04" y="1926.01" width="50.29" height="50.29"/><rect x="655.04" y="1875.72" width="50.29" height="50.29"/><rect class="cls-5" x="655.04" y="1825.43" width="50.29" height="50.29"/><rect x="655.04" y="1775.13" width="50.29" height="50.29"/><rect class="cls-9" x="655.04" y="1724.84" width="50.29" height="50.29"/><rect x="655.04" y="1674.55" width="50.29" height="50.29"/><rect class="cls-13" x="655.04" y="1624.26" width="50.29" height="50.29"/><rect class="cls-12" x="655.04" y="1573.97" width="50.29" height="50.29"/><rect class="cls-12" x="655.04" y="1523.68" width="50.29" height="50.29"/><rect class="cls-12" x="655.04" y="1473.38" width="50.29" height="50.29"/><rect class="cls-12" x="655.04" y="1423.09" width="50.29" height="50.29"/><rect class="cls-12" x="655.04" y="1372.8" width="50.29" height="50.29"/><rect x="655.04" y="1322.51" width="50.29" height="50.29"/><rect x="655.04" y="1272.22" width="50.29" height="50.29"/><rect x="655.04" y="1221.93" width="50.29" height="50.29"/><rect x="655.04" y="1071.05" width="50.29" height="50.29"/><rect x="655.04" y="1020.76" width="50.29" height="50.29"/><rect x="655.04" y="970.47" width="50.29" height="50.29"/><rect x="655.04" y="920.18" width="50.29" height="50.29"/><rect class="cls-1" x="655.04" y="869.88" width="50.29" height="50.29"/><rect x="655.04" y="819.59" width="50.29" height="50.29"/><rect class="cls-1" x="655.04" y="769.3" width="50.29" height="50.29"/><rect x="655.04" y="719.01" width="50.29" height="50.29"/><rect x="655.04" y="668.72" width="50.29" height="50.29"/><rect class="cls-1" x="655.04" y="618.43" width="50.29" height="50.29"/><rect class="cls-3" x="655.04" y="568.13" width="50.29" height="50.29"/><rect x="655.04" y="517.84" width="50.29" height="50.29"/><rect class="cls-1" x="655.04" y="467.55" width="50.29" height="50.29"/><rect x="655.04" y="417.26" width="50.29" height="50.29"/><rect x="655.04" y="366.97" width="50.29" height="50.29"/><rect x="655.04" y="316.68" width="50.29" height="50.29"/><rect class="cls-1" x="655.04" y="266.38" width="50.29" height="50.29"/><rect class="cls-1" x="655.04" y="216.09" width="50.29" height="50.29"/><rect x="655.04" y="165.8" width="50.29" height="50.29"/><rect class="cls-4" x="655.04" y="115.51" width="50.29" height="50.29"/><rect class="cls-4" x="655.04" y="65.22" width="50.29" height="50.29"/><rect x="655.04" y="14.93" width="50.29" height="50.29"/><rect x="604.75" y="2378.63" width="50.29" height="50.29"/><rect class="cls-7" x="604.75" y="2328.34" width="50.29" height="50.29"/><rect class="cls-6" x="604.75" y="2278.05" width="50.29" height="50.29"/><rect class="cls-6" x="604.75" y="2227.76" width="50.29" height="50.29"/><rect class="cls-6" x="604.75" y="2177.47" width="50.29" height="50.29"/><rect class="cls-6" x="604.75" y="2127.18" width="50.29" height="50.29"/><rect class="cls-6" x="604.75" y="2076.88" width="50.29" height="50.29"/><rect class="cls-6" x="604.75" y="2026.59" width="50.29" height="50.29"/><rect class="cls-6" x="604.75" y="1976.3" width="50.29" height="50.29"/><rect class="cls-7" x="604.75" y="1926.01" width="50.29" height="50.29"/><rect x="604.75" y="1875.72" width="50.29" height="50.29"/><rect class="cls-6" x="604.75" y="1825.43" width="50.29" height="50.29"/><rect x="604.75" y="1775.13" width="50.29" height="50.29"/><rect class="cls-8" x="604.75" y="1724.84" width="50.29" height="50.29"/><rect x="604.75" y="1674.55" width="50.29" height="50.29"/><rect class="cls-13" x="604.75" y="1624.26" width="50.29" height="50.29"/><rect class="cls-13" x="604.75" y="1573.97" width="50.29" height="50.29"/><rect class="cls-13" x="604.75" y="1523.68" width="50.29" height="50.29"/><rect class="cls-13" x="604.75" y="1473.38" width="50.29" height="50.29"/><rect class="cls-13" x="604.75" y="1423.09" width="50.29" height="50.29"/><rect x="604.75" y="1372.8" width="50.29" height="50.29"/><rect class="cls-11" x="604.75" y="1322.51" width="50.29" height="50.29"/><rect class="cls-13" x="604.75" y="1272.22" width="50.29" height="50.29"/><rect class="cls-13" x="604.75" y="1221.93" width="50.29" height="50.29"/><rect x="604.75" y="1171.63" width="50.29" height="50.29"/><rect x="604.75" y="1121.34" width="50.29" height="50.29"/><rect x="604.75" y="1071.05" width="50.29" height="50.29"/><rect class="cls-1" x="604.75" y="1020.76" width="50.29" height="50.29"/><rect class="cls-1" x="604.75" y="970.47" width="50.29" height="50.29"/><rect class="cls-1" x="604.75" y="920.18" width="50.29" height="50.29"/><rect x="604.75" y="869.88" width="50.29" height="50.29"/><rect x="604.75" y="819.59" width="50.29" height="50.29"/><rect class="cls-1" x="604.75" y="769.3" width="50.29" height="50.29"/><rect class="cls-1" x="604.75" y="719.01" width="50.29" height="50.29"/><rect x="604.75" y="668.72" width="50.29" height="50.29"/><rect x="604.75" y="618.43" width="50.29" height="50.29"/><rect class="cls-3" x="604.75" y="568.13" width="50.29" height="50.29"/><rect x="604.75" y="517.84" width="50.29" height="50.29"/><rect x="604.75" y="467.55" width="50.29" height="50.29"/><rect class="cls-1" x="604.75" y="417.26" width="50.29" height="50.29"/><rect class="cls-1" x="604.75" y="366.97" width="50.29" height="50.29"/><rect x="604.75" y="316.68" width="50.29" height="50.29"/><rect class="cls-1" x="604.75" y="266.38" width="50.29" height="50.29"/><rect class="cls-1" x="604.75" y="216.09" width="50.29" height="50.29"/><rect class="cls-3" x="604.75" y="165.8" width="50.29" height="50.29"/><rect x="604.75" y="115.51" width="50.29" height="50.29"/><rect x="604.75" y="65.22" width="50.29" height="50.29"/><rect x="554.46" y="2378.63" width="50.29" height="50.29"/><rect class="cls-7" x="554.46" y="2328.34" width="50.29" height="50.29"/><rect class="cls-6" x="554.46" y="2278.05" width="50.29" height="50.29"/><rect class="cls-6" x="554.46" y="2227.76" width="50.29" height="50.29"/><rect class="cls-6" x="554.46" y="2177.47" width="50.29" height="50.29"/><rect class="cls-6" x="554.46" y="2127.18" width="50.29" height="50.29"/><rect class="cls-6" x="554.46" y="2076.88" width="50.29" height="50.29"/><rect class="cls-6" x="554.46" y="2026.59" width="50.29" height="50.29"/><rect class="cls-6" x="554.46" y="1976.3" width="50.29" height="50.29"/><rect class="cls-7" x="554.46" y="1926.01" width="50.29" height="50.29"/><rect x="554.46" y="1875.72" width="50.29" height="50.29"/><rect class="cls-6" x="554.46" y="1825.43" width="50.29" height="50.29"/><rect x="554.46" y="1775.13" width="50.29" height="50.29"/><rect class="cls-8" x="554.46" y="1724.84" width="50.29" height="50.29"/><rect x="554.46" y="1674.55" width="50.29" height="50.29"/><rect class="cls-13" x="554.46" y="1624.26" width="50.29" height="50.29"/><rect x="554.46" y="1573.97" width="50.29" height="50.29"/><rect x="554.46" y="1523.68" width="50.29" height="50.29"/><rect x="554.46" y="1473.38" width="50.29" height="50.29"/><rect class="cls-13" x="554.46" y="1423.09" width="50.29" height="50.29"/><rect class="cls-12" x="554.46" y="1372.8" width="50.29" height="50.29"/><rect x="554.46" y="1322.51" width="50.29" height="50.29"/><rect x="554.46" y="1272.22" width="50.29" height="50.29"/><rect x="554.46" y="1221.93" width="50.29" height="50.29"/><rect class="cls-13" x="554.46" y="1171.63" width="50.29" height="50.29"/><rect class="cls-11" x="554.46" y="1121.34" width="50.29" height="50.29"/><rect x="554.46" y="1071.05" width="50.29" height="50.29"/><rect x="554.46" y="1020.76" width="50.29" height="50.29"/><rect class="cls-1" x="554.46" y="970.47" width="50.29" height="50.29"/><rect x="554.46" y="920.18" width="50.29" height="50.29"/><rect class="cls-2" x="554.46" y="869.88" width="50.29" height="50.29"/><rect class="cls-2" x="554.46" y="819.59" width="50.29" height="50.29"/><rect x="554.46" y="769.3" width="50.29" height="50.29"/><rect class="cls-1" x="554.46" y="719.01" width="50.29" height="50.29"/><rect x="554.46" y="668.72" width="50.29" height="50.29"/><rect class="cls-1" x="554.46" y="618.43" width="50.29" height="50.29"/><rect x="554.46" y="568.13" width="50.29" height="50.29"/><rect class="cls-1" x="554.46" y="517.84" width="50.29" height="50.29"/><rect class="cls-1" x="554.46" y="467.55" width="50.29" height="50.29"/><rect x="554.46" y="417.26" width="50.29" height="50.29"/><rect x="554.46" y="366.97" width="50.29" height="50.29"/><rect x="554.46" y="316.68" width="50.29" height="50.29"/><rect x="554.46" y="266.38" width="50.29" height="50.29"/><rect x="554.46" y="216.09" width="50.29" height="50.29"/><rect class="cls-3" x="554.46" y="165.8" width="50.29" height="50.29"/><rect x="554.46" y="115.51" width="50.29" height="50.29"/><rect class="cls-3" x="554.46" y="65.22" width="50.29" height="50.29"/><rect x="554.46" y="14.93" width="50.29" height="50.29"/><rect x="504.16" y="2378.63" width="50.29" height="50.29"/><rect class="cls-7" x="504.16" y="2328.34" width="50.29" height="50.29"/><rect class="cls-6" x="504.16" y="2278.05" width="50.29" height="50.29"/><rect class="cls-6" x="504.16" y="2227.76" width="50.29" height="50.29"/><rect class="cls-6" x="504.16" y="2177.47" width="50.29" height="50.29"/><rect class="cls-6" x="504.16" y="2127.18" width="50.29" height="50.29"/><rect class="cls-6" x="504.16" y="2076.88" width="50.29" height="50.29"/><rect class="cls-6" x="504.16" y="2026.59" width="50.29" height="50.29"/><rect class="cls-6" x="504.16" y="1976.3" width="50.29" height="50.29"/><rect class="cls-7" x="504.16" y="1926.01" width="50.29" height="50.29"/><rect x="504.16" y="1875.72" width="50.29" height="50.29"/><rect class="cls-6" x="504.16" y="1825.43" width="50.29" height="50.29"/><rect x="504.16" y="1775.13" width="50.29" height="50.29"/><rect class="cls-9" x="504.16" y="1724.84" width="50.29" height="50.29"/><rect class="cls-8" x="504.16" y="1674.55" width="50.29" height="50.29"/><rect x="504.16" y="1624.26" width="50.29" height="50.29"/><rect class="cls-8" x="504.16" y="1573.97" width="50.29" height="50.29"/><rect x="504.16" y="1523.68" width="50.29" height="50.29"/><rect x="504.16" y="1423.09" width="50.29" height="50.29"/><rect x="504.16" y="1372.8" width="50.29" height="50.29"/><rect class="cls-12" x="504.16" y="1322.51" width="50.29" height="50.29"/><rect x="504.16" y="1272.22" width="50.29" height="50.29"/><rect x="504.16" y="1171.63" width="50.29" height="50.29"/><rect x="504.16" y="1121.34" width="50.29" height="50.29"/><rect x="504.16" y="1071.05" width="50.29" height="50.29"/><rect class="cls-1" x="504.16" y="1020.76" width="50.29" height="50.29"/><rect x="504.16" y="970.47" width="50.29" height="50.29"/><rect class="cls-4" x="504.16" y="920.18" width="50.29" height="50.29"/><rect class="cls-2" x="504.16" y="869.88" width="50.29" height="50.29"/><rect class="cls-2" x="504.16" y="819.59" width="50.29" height="50.29"/><rect x="504.16" y="769.3" width="50.29" height="50.29"/><rect x="504.16" y="719.01" width="50.29" height="50.29"/><rect x="504.16" y="668.72" width="50.29" height="50.29"/><rect x="504.16" y="618.43" width="50.29" height="50.29"/><rect class="cls-1" x="504.16" y="568.13" width="50.29" height="50.29"/><rect x="504.16" y="517.84" width="50.29" height="50.29"/><rect x="504.16" y="467.55" width="50.29" height="50.29"/><rect x="504.16" y="417.26" width="50.29" height="50.29"/><rect class="cls-1" x="504.16" y="366.97" width="50.29" height="50.29"/><rect x="504.16" y="316.68" width="50.29" height="50.29"/><rect class="cls-3" x="504.16" y="266.38" width="50.29" height="50.29"/><rect class="cls-3" x="504.16" y="216.09" width="50.29" height="50.29"/><rect x="504.16" y="165.8" width="50.29" height="50.29"/><rect x="504.16" y="115.51" width="50.29" height="50.29"/><rect class="cls-3" x="504.16" y="65.22" width="50.29" height="50.29"/><rect x="504.16" y="14.93" width="50.29" height="50.29"/><rect x="453.87" y="2328.34" width="50.29" height="50.29"/><rect class="cls-7" x="453.87" y="2278.05" width="50.29" height="50.29"/><rect class="cls-6" x="453.87" y="2227.76" width="50.29" height="50.29"/><rect class="cls-6" x="453.87" y="2177.47" width="50.29" height="50.29"/><rect class="cls-6" x="453.87" y="2127.18" width="50.29" height="50.29"/><rect class="cls-6" x="453.87" y="2076.88" width="50.29" height="50.29"/><rect class="cls-6" x="453.87" y="2026.59" width="50.29" height="50.29"/><rect class="cls-6" x="453.87" y="1976.3" width="50.29" height="50.29"/><rect class="cls-6" x="453.87" y="1926.01" width="50.29" height="50.29"/><rect class="cls-7" x="453.87" y="1875.72" width="50.29" height="50.29"/><rect x="453.87" y="1825.43" width="50.29" height="50.29"/><rect class="cls-6" x="453.87" y="1775.13" width="50.29" height="50.29"/><rect x="453.87" y="1724.84" width="50.29" height="50.29"/><rect class="cls-9" x="453.87" y="1674.55" width="50.29" height="50.29"/><rect class="cls-10" x="453.87" y="1624.26" width="50.29" height="50.29"/><rect class="cls-8" x="453.87" y="1573.97" width="50.29" height="50.29"/><rect x="453.87" y="1523.68" width="50.29" height="50.29"/><rect x="453.87" y="1322.51" width="50.29" height="50.29"/><rect class="cls-13" x="453.87" y="1272.22" width="50.29" height="50.29"/><rect x="453.87" y="1221.93" width="50.29" height="50.29"/><rect x="453.87" y="1071.05" width="50.29" height="50.29"/><rect x="453.87" y="1020.76" width="50.29" height="50.29"/><rect x="453.87" y="970.47" width="50.29" height="50.29"/><rect x="453.87" y="920.18" width="50.29" height="50.29"/><rect class="cls-4" x="453.87" y="869.88" width="50.29" height="50.29"/><rect class="cls-4" x="453.87" y="819.59" width="50.29" height="50.29"/><rect x="453.87" y="769.3" width="50.29" height="50.29"/><rect class="cls-1" x="453.87" y="719.01" width="50.29" height="50.29"/><rect class="cls-1" x="453.87" y="668.72" width="50.29" height="50.29"/><rect x="453.87" y="618.43" width="50.29" height="50.29"/><rect x="453.87" y="568.13" width="50.29" height="50.29"/><rect class="cls-3" x="453.87" y="517.84" width="50.29" height="50.29"/><rect x="453.87" y="467.55" width="50.29" height="50.29"/><rect class="cls-1" x="453.87" y="417.26" width="50.29" height="50.29"/><rect class="cls-1" x="453.87" y="366.97" width="50.29" height="50.29"/><rect x="453.87" y="316.68" width="50.29" height="50.29"/><rect x="453.87" y="266.38" width="50.29" height="50.29"/><rect x="453.87" y="216.09" width="50.29" height="50.29"/><rect class="cls-1" x="453.87" y="165.8" width="50.29" height="50.29"/><rect class="cls-1" x="453.87" y="115.51" width="50.29" height="50.29"/><rect x="453.87" y="65.22" width="50.29" height="50.29"/><rect x="453.87" y="14.93" width="50.29" height="50.29"/><rect x="403.58" y="2328.34" width="50.29" height="50.29"/><rect class="cls-7" x="403.58" y="2278.05" width="50.29" height="50.29"/><rect class="cls-7" x="403.58" y="2227.76" width="50.29" height="50.29"/><rect class="cls-6" x="403.58" y="2177.47" width="50.29" height="50.29"/><rect class="cls-6" x="403.58" y="2127.18" width="50.29" height="50.29"/><rect class="cls-6" x="403.58" y="2076.88" width="50.29" height="50.29"/><rect class="cls-6" x="403.58" y="2026.59" width="50.29" height="50.29"/><rect class="cls-6" x="403.58" y="1976.3" width="50.29" height="50.29"/><rect class="cls-6" x="403.58" y="1926.01" width="50.29" height="50.29"/><rect class="cls-7" x="403.58" y="1875.72" width="50.29" height="50.29"/><rect x="403.58" y="1825.43" width="50.29" height="50.29"/><rect class="cls-6" x="403.58" y="1775.13" width="50.29" height="50.29"/><rect x="403.58" y="1724.84" width="50.29" height="50.29"/><rect class="cls-8" x="403.58" y="1674.55" width="50.29" height="50.29"/><rect class="cls-9" x="403.58" y="1624.26" width="50.29" height="50.29"/><rect class="cls-9" x="403.58" y="1573.97" width="50.29" height="50.29"/><rect x="403.58" y="1523.68" width="50.29" height="50.29"/><rect x="403.58" y="1322.51" width="50.29" height="50.29"/><rect class="cls-12" x="403.58" y="1272.22" width="50.29" height="50.29"/><rect x="403.58" y="1221.93" width="50.29" height="50.29"/><rect x="403.58" y="1171.63" width="50.29" height="50.29"/><rect x="403.58" y="1121.34" width="50.29" height="50.29"/><rect x="403.58" y="1071.05" width="50.29" height="50.29"/><rect class="cls-1" x="403.58" y="1020.76" width="50.29" height="50.29"/><rect class="cls-1" x="403.58" y="970.47" width="50.29" height="50.29"/><rect x="403.58" y="920.18" width="50.29" height="50.29"/><rect x="403.58" y="869.88" width="50.29" height="50.29"/><rect x="403.58" y="819.59" width="50.29" height="50.29"/><rect class="cls-1" x="403.58" y="769.3" width="50.29" height="50.29"/><rect x="403.58" y="719.01" width="50.29" height="50.29"/><rect x="403.58" y="668.72" width="50.29" height="50.29"/><rect class="cls-1" x="403.58" y="618.43" width="50.29" height="50.29"/><rect class="cls-1" x="403.58" y="568.13" width="50.29" height="50.29"/><rect x="403.58" y="517.84" width="50.29" height="50.29"/><rect x="403.58" y="467.55" width="50.29" height="50.29"/><rect x="403.58" y="417.26" width="50.29" height="50.29"/><rect class="cls-1" x="403.58" y="366.97" width="50.29" height="50.29"/><rect x="403.58" y="316.68" width="50.29" height="50.29"/><rect class="cls-2" x="403.58" y="266.38" width="50.29" height="50.29"/><rect class="cls-2" x="403.58" y="216.09" width="50.29" height="50.29"/><rect x="403.58" y="165.8" width="50.29" height="50.29"/><rect x="403.58" y="115.51" width="50.29" height="50.29"/><rect class="cls-1" x="403.58" y="65.22" width="50.29" height="50.29"/><rect x="403.58" y="14.93" width="50.29" height="50.29"/><rect x="353.29" y="2278.05" width="50.29" height="50.29"/><rect x="353.29" y="2227.76" width="50.29" height="50.29"/><rect class="cls-7" x="353.29" y="2177.47" width="50.29" height="50.29"/><rect class="cls-7" x="353.29" y="2127.18" width="50.29" height="50.29"/><rect class="cls-7" x="353.29" y="2076.88" width="50.29" height="50.29"/><rect class="cls-7" x="353.29" y="2026.59" width="50.29" height="50.29"/><rect class="cls-7" x="353.29" y="1976.3" width="50.29" height="50.29"/><rect class="cls-7" x="353.29" y="1926.01" width="50.29" height="50.29"/><rect class="cls-7" x="353.29" y="1875.72" width="50.29" height="50.29"/><rect x="353.29" y="1825.43" width="50.29" height="50.29"/><rect class="cls-7" x="353.29" y="1775.13" width="50.29" height="50.29"/><rect x="353.29" y="1724.84" width="50.29" height="50.29"/><rect class="cls-9" x="353.29" y="1674.55" width="50.29" height="50.29"/><rect class="cls-8" x="353.29" y="1624.26" width="50.29" height="50.29"/><rect x="353.29" y="1573.97" width="50.29" height="50.29"/><rect x="353.29" y="1272.22" width="50.29" height="50.29"/><rect class="cls-12" x="353.29" y="1221.93" width="50.29" height="50.29"/><rect class="cls-13" x="353.29" y="1171.63" width="50.29" height="50.29"/><rect class="cls-11" x="353.29" y="1121.34" width="50.29" height="50.29"/><rect x="353.29" y="1071.05" width="50.29" height="50.29"/><rect x="353.29" y="1020.76" width="50.29" height="50.29"/><rect class="cls-1" x="353.29" y="970.47" width="50.29" height="50.29"/><rect x="353.29" y="920.18" width="50.29" height="50.29"/><rect class="cls-1" x="353.29" y="869.88" width="50.29" height="50.29"/><rect x="353.29" y="819.59" width="50.29" height="50.29"/><rect class="cls-1" x="353.29" y="769.3" width="50.29" height="50.29"/><rect class="cls-1" x="353.29" y="719.01" width="50.29" height="50.29"/><rect x="353.29" y="668.72" width="50.29" height="50.29"/><rect x="353.29" y="618.43" width="50.29" height="50.29"/><rect x="353.29" y="568.13" width="50.29" height="50.29"/><rect class="cls-1" x="353.29" y="517.84" width="50.29" height="50.29"/><rect class="cls-1" x="353.29" y="467.55" width="50.29" height="50.29"/><rect x="353.29" y="417.26" width="50.29" height="50.29"/><rect x="353.29" y="366.97" width="50.29" height="50.29"/><rect class="cls-4" x="353.29" y="316.68" width="50.29" height="50.29"/><rect class="cls-2" x="353.29" y="266.38" width="50.29" height="50.29"/><rect class="cls-2" x="353.29" y="216.09" width="50.29" height="50.29"/><rect x="353.29" y="165.8" width="50.29" height="50.29"/><rect class="cls-3" x="353.29" y="115.51" width="50.29" height="50.29"/><rect x="353.29" y="65.22" width="50.29" height="50.29"/><rect x="303" y="2177.47" width="50.29" height="50.29"/><rect x="303" y="2127.18" width="50.29" height="50.29"/><rect x="303" y="2076.88" width="50.29" height="50.29"/><rect x="303" y="2026.59" width="50.29" height="50.29"/><rect x="303" y="1976.3" width="50.29" height="50.29"/><rect class="cls-7" x="303" y="1926.01" width="50.29" height="50.29"/><rect class="cls-7" x="303" y="1875.72" width="50.29" height="50.29"/><rect class="cls-7" x="303" y="1825.43" width="50.29" height="50.29"/><rect x="303" y="1775.13" width="50.29" height="50.29"/><rect class="cls-7" x="303" y="1724.84" width="50.29" height="50.29"/><rect x="303" y="1674.55" width="50.29" height="50.29"/><rect x="303" y="1624.26" width="50.29" height="50.29"/><rect x="303" y="1573.97" width="50.29" height="50.29"/><rect x="303" y="1221.93" width="50.29" height="50.29"/><rect x="303" y="1171.63" width="50.29" height="50.29"/><rect x="303" y="1121.34" width="50.29" height="50.29"/><rect class="cls-11" x="303" y="1071.05" width="50.29" height="50.29"/><rect x="303" y="1020.76" width="50.29" height="50.29"/><rect class="cls-1" x="303" y="970.47" width="50.29" height="50.29"/><rect class="cls-3" x="303" y="920.18" width="50.29" height="50.29"/><rect x="303" y="869.88" width="50.29" height="50.29"/><rect x="303" y="819.59" width="50.29" height="50.29"/><rect class="cls-1" x="303" y="769.3" width="50.29" height="50.29"/><rect x="303" y="719.01" width="50.29" height="50.29"/><rect class="cls-3" x="303" y="668.72" width="50.29" height="50.29"/><rect class="cls-3" x="303" y="618.43" width="50.29" height="50.29"/><rect class="cls-3" x="303" y="568.13" width="50.29" height="50.29"/><rect x="303" y="517.84" width="50.29" height="50.29"/><rect x="303" y="467.55" width="50.29" height="50.29"/><rect x="303" y="417.26" width="50.29" height="50.29"/><rect class="cls-1" x="303" y="366.97" width="50.29" height="50.29"/><rect x="303" y="316.68" width="50.29" height="50.29"/><rect class="cls-4" x="303" y="266.38" width="50.29" height="50.29"/><rect class="cls-4" x="303" y="216.09" width="50.29" height="50.29"/><rect x="303" y="165.8" width="50.29" height="50.29"/><rect class="cls-3" x="303" y="115.51" width="50.29" height="50.29"/><rect x="303" y="65.22" width="50.29" height="50.29"/><rect x="252.71" y="1926.01" width="50.29" height="50.29"/><rect x="252.71" y="1875.72" width="50.29" height="50.29"/><rect x="252.71" y="1825.43" width="50.29" height="50.29"/><rect x="252.71" y="1775.13" width="50.29" height="50.29"/><rect class="cls-7" x="252.71" y="1724.84" width="50.29" height="50.29"/><rect class="cls-7" x="252.71" y="1674.55" width="50.29" height="50.29"/><rect class="cls-7" x="252.71" y="1624.26" width="50.29" height="50.29"/><rect x="252.71" y="1573.97" width="50.29" height="50.29"/><rect x="252.71" y="1071.05" width="50.29" height="50.29"/><rect x="252.71" y="1020.76" width="50.29" height="50.29"/><rect x="252.71" y="970.47" width="50.29" height="50.29"/><rect class="cls-3" x="252.71" y="920.18" width="50.29" height="50.29"/><rect class="cls-3" x="252.71" y="869.88" width="50.29" height="50.29"/><rect x="252.71" y="819.59" width="50.29" height="50.29"/><rect x="252.71" y="769.3" width="50.29" height="50.29"/><rect x="252.71" y="719.01" width="50.29" height="50.29"/><rect class="cls-1" x="252.71" y="668.72" width="50.29" height="50.29"/><rect x="252.71" y="618.43" width="50.29" height="50.29"/><rect x="252.71" y="568.13" width="50.29" height="50.29"/><rect class="cls-1" x="252.71" y="517.84" width="50.29" height="50.29"/><rect class="cls-1" x="252.71" y="467.55" width="50.29" height="50.29"/><rect x="252.71" y="417.26" width="50.29" height="50.29"/><rect class="cls-3" x="252.71" y="366.97" width="50.29" height="50.29"/><rect class="cls-3" x="252.71" y="316.68" width="50.29" height="50.29"/><rect x="252.71" y="266.38" width="50.29" height="50.29"/><rect x="252.71" y="216.09" width="50.29" height="50.29"/><rect class="cls-3" x="252.71" y="165.8" width="50.29" height="50.29"/><rect class="cls-1" x="252.71" y="115.51" width="50.29" height="50.29"/><rect x="252.71" y="65.22" width="50.29" height="50.29"/><rect x="202.41" y="1724.84" width="50.29" height="50.29"/><rect x="202.41" y="1674.55" width="50.29" height="50.29"/><rect x="202.41" y="1624.26" width="50.29" height="50.29"/><rect x="202.41" y="920.18" width="50.29" height="50.29"/><rect x="202.41" y="869.88" width="50.29" height="50.29"/><rect class="cls-1" x="202.41" y="819.59" width="50.29" height="50.29"/><rect class="cls-1" x="202.41" y="769.3" width="50.29" height="50.29"/><rect x="202.41" y="719.01" width="50.29" height="50.29"/><rect x="202.41" y="668.72" width="50.29" height="50.29"/><rect x="202.41" y="618.43" width="50.29" height="50.29"/><rect class="cls-1" x="202.41" y="568.13" width="50.29" height="50.29"/><rect x="202.41" y="517.84" width="50.29" height="50.29"/><rect x="202.41" y="467.55" width="50.29" height="50.29"/><rect class="cls-1" x="202.41" y="417.26" width="50.29" height="50.29"/><rect x="202.41" y="366.97" width="50.29" height="50.29"/><rect class="cls-3" x="202.41" y="316.68" width="50.29" height="50.29"/><rect x="202.41" y="266.38" width="50.29" height="50.29"/><rect class="cls-1" x="202.41" y="216.09" width="50.29" height="50.29"/><rect class="cls-1" x="202.41" y="165.8" width="50.29" height="50.29"/><rect x="202.41" y="115.51" width="50.29" height="50.29"/><rect x="152.12" y="869.88" width="50.29" height="50.29"/><rect x="152.12" y="819.59" width="50.29" height="50.29"/><rect x="152.12" y="769.3" width="50.29" height="50.29"/><rect x="152.12" y="719.01" width="50.29" height="50.29"/><rect class="cls-2" x="152.12" y="668.72" width="50.29" height="50.29"/><rect class="cls-2" x="152.12" y="618.43" width="50.29" height="50.29"/><rect x="152.12" y="568.13" width="50.29" height="50.29"/><rect class="cls-1" x="152.12" y="517.84" width="50.29" height="50.29"/><rect class="cls-1" x="152.12" y="467.55" width="50.29" height="50.29"/><rect class="cls-1" x="152.12" y="417.26" width="50.29" height="50.29"/><rect x="152.12" y="366.97" width="50.29" height="50.29"/><rect x="152.12" y="316.68" width="50.29" height="50.29"/><rect class="cls-1" x="152.12" y="266.38" width="50.29" height="50.29"/><rect x="152.12" y="216.09" width="50.29" height="50.29"/><rect class="cls-1" x="152.12" y="165.8" width="50.29" height="50.29"/><rect x="152.12" y="115.51" width="50.29" height="50.29"/><rect x="101.83" y="769.3" width="50.29" height="50.29"/><rect class="cls-4" x="101.83" y="719.01" width="50.29" height="50.29"/><rect class="cls-2" x="101.83" y="668.72" width="50.29" height="50.29"/><rect class="cls-2" x="101.83" y="618.43" width="50.29" height="50.29"/><rect x="101.83" y="568.13" width="50.29" height="50.29"/><rect x="101.83" y="517.84" width="50.29" height="50.29"/><rect x="101.83" y="467.55" width="50.29" height="50.29"/><rect class="cls-1" x="101.83" y="417.26" width="50.29" height="50.29"/><rect x="101.83" y="366.97" width="50.29" height="50.29"/><rect class="cls-3" x="101.83" y="316.68" width="50.29" height="50.29"/><rect class="cls-3" x="101.83" y="266.38" width="50.29" height="50.29"/><rect x="101.83" y="216.09" width="50.29" height="50.29"/><rect x="101.83" y="165.8" width="50.29" height="50.29"/><rect x="51.54" y="719.01" width="50.29" height="50.29"/><rect class="cls-4" x="51.54" y="668.72" width="50.29" height="50.29"/><rect class="cls-4" x="51.54" y="618.43" width="50.29" height="50.29"/><rect x="51.54" y="568.13" width="50.29" height="50.29"/><rect class="cls-3" x="51.54" y="517.84" width="50.29" height="50.29"/><rect class="cls-3" x="51.54" y="467.55" width="50.29" height="50.29"/><rect x="51.54" y="417.26" width="50.29" height="50.29"/><rect class="cls-1" x="51.54" y="366.97" width="50.29" height="50.29"/><rect x="51.54" y="316.68" width="50.29" height="50.29"/><rect x="51.54" y="266.38" width="50.29" height="50.29"/><rect x="1.25" y="668.72" width="50.29" height="50.29"/><rect x="1.25" y="618.43" width="50.29" height="50.29"/><rect x="1.25" y="517.84" width="50.29" height="50.29"/><rect x="1.25" y="467.55" width="50.29" height="50.29"/><rect x="1.25" y="417.26" width="50.29" height="50.29"/><rect x="1.25" y="366.97" width="50.29" height="50.29"/></svg>