<svg id="_ÎÓÈ_5" data-name="—ÎÓÈ_5" xmlns="http://www.w3.org/2000/svg" viewBox="0 0 1666 2746"><defs><style>.cls-1,.cls-10,.cls-11,.cls-2,.cls-3,.cls-4,.cls-5,.cls-6,.cls-7,.cls-8,.cls-9{fill-rule:evenodd;}.cls-2{fill:#508181;}.cls-3{fill:#1dedaf;}.cls-4{fill:#699;}.cls-5{fill:#69431c;}.cls-6{fill:#17d49b;}.cls-7{fill:#15b082;}.cls-8{fill:#750808;}.cls-9{fill:red;}.cls-10{fill:#fff;}.cls-11{fill:#8a5724;}</style></defs><path class="cls-1" d="M954.59,2735.29H689.81v-53.48H636.86v-107h-53v-107H531v-107H478V2200.48H425V2147H266.17v-53.48h-53v-107h53V1665.67h53v-107h52.95v-53.48H478v-53.48H795.72v-107H636.86v-53.48H478v-53.48H425v-53.48h-53v-53.48H319.13v-53.48H160.27v-53.48h-53V970.42H54.36v-107H1.4v-107h53V703h53V649.54h52.95V596.06H107.31V542.58H54.36V489.1H1.4v-107h53V328.65h53V275.17h53V221.69H372.08V168.21h53V114.73H478V61.25H583.9V7.77h423.64V61.25h105.91v53.48h105.91v53.48h53v53.48h53v107h53v53.49h53v107h53V863.46h-53v107h-53v53.48h-53v107h-53v53.48h-53v53.48H1113.45v53.48h264.77v53.48h53v53.48h53v53.48h52.95v107h53v213.92h53v107h-53v53.48H1431.18V1879.6H1325.27v-53.49h-53v-107H1060.5v107h105.91v53.48h52.95v53.49h105.91v53.48h53v213.92h-53v160.44h-53v107h-53v107h-52.95v107h-53v53.48Zm105.91-1444h-53v53.48h105.91v-53.48Z"/><path class="cls-2" d="M954.59,2681.81H689.81v-107H636.86v-107h-53v-107H531V2200.48H478V1986.56h847.28v213.92h-53v160.44h-53v107h-52.95v107h-53v107Z"/><path class="cls-3" d="M319.13,2093.52h-53v-107h53V1665.67h52.95v-107H478v-53.48H742.77v53.48h53v53.48h53v-107h-53v-53.48h53v-107h-53v-53.48H636.86v-53.48H478v-53.48H425v-53.48h-53v-53.48H319.13V1023.9c18.05,0,35.45-.2,52.95-.37V221.69h53V168.21H478V114.73H583.9V61.25h423.64v53.48h105.91v53.48h105.91v53.48h53v107h53v53.49h53v107h53V863.46h-53v107h-53v53.48h-53v107h-53v53.48H1113.45v53.48H1007.54v53.48H954.59v53.48h52.95v107h53v-53.48h53v-53.48h264.77v53.48h53v53.48h53v107h52.95v213.92h53v107H1431.18v-53.48H1325.27v-107h-53v-53.48H1007.54v160.45H954.59v107H795.72v-107h53v-53.49H636.86v53.49h-53v53.48H531v107H478v107Z"/><path class="cls-4" d="M531,2200.48H478V1986.56h847.28v213.92Z"/><polygon class="cls-5" points="689.81 1986.56 636.86 1986.56 583.9 1986.56 583.9 1933.08 636.86 1933.08 689.81 1933.08 742.77 1933.08 795.72 1933.08 848.68 1933.08 901.63 1933.08 954.59 1933.08 1007.54 1933.08 1060.5 1933.08 1113.45 1933.08 1166.41 1933.08 1219.36 1933.08 1219.36 1986.56 1166.41 1986.56 1113.45 1986.56 1060.5 1986.56 1007.54 1986.56 954.59 1986.56 901.63 1986.56 848.68 1986.56 795.72 1986.56 742.77 1986.56 689.81 1986.56"/><path class="cls-6" d="M478,1077.39H425V1023.9H478v53.49h53v53.48H478v-53.48ZM1325.27,489.1h-53V435.62h-53V382.14h53v53.48h53V489.1ZM1166.41,328.65h-53V275.17h-53V221.69h53v53.48h53v53.48ZM742.77,1237.83h-53v-53.48h53v53.48Zm-105.91-53.48h-53v-53.48h53Z"/><polygon class="cls-7" points="372.08 275.17 689.81 275.17 689.81 328.65 901.63 328.65 901.63 382.14 1060.5 382.14 1060.5 435.62 1166.41 435.62 1166.41 489.1 1219.36 489.1 1219.36 542.58 1272.32 542.58 1272.32 596.06 1325.27 596.06 1325.27 649.54 1378.22 649.54 1378.22 756.5 1325.27 756.5 1325.27 863.46 1219.36 863.46 1219.36 916.94 1113.45 916.94 1113.45 970.42 954.59 970.42 954.59 1023.9 160.26 1023.9 160.26 970.42 107.31 970.42 107.31 863.46 54.35 863.46 54.35 756.5 107.31 756.5 107.31 703.02 160.26 703.02 160.26 649.54 213.22 649.54 213.22 596.06 160.26 596.06 160.26 542.58 107.31 542.58 107.31 489.1 54.35 489.1 54.35 382.14 107.31 382.14 107.31 328.65 160.26 328.65 160.26 275.17 372.08 275.17"/><path class="cls-8" d="M319.13,916.94h-53V863.46h-53V810h53V489.1h-53V435.62h53V382.14H531v53.48H742.77V489.1H901.63v53.48h105.91v53.48h105.91v53.48h105.91v107H1113.45V810H1007.54v53.48H795.72v53.48ZM425,810"/><path class="cls-9" d="M319.13,596.06V542.58H478v53.48H583.9v53.48h53V703h52.95V756.5h53V810h53v107H636.86V863.46h-53V810H531V756.5H425V703h-53V649.54H319.13Z"/><path class="cls-10" d="M425,489.1h-53v-107H478v53.48H425V489.1Zm0,427.84h-53V810h53v53.48H478v53.48Zm529.55-53.48h-53V810h53V756.5h52.95v107ZM848.68,596.06h-53V542.58h-53V489.1H848.68Z"/><path class="cls-11" d="M689.81,1933.08H636.86V1879.6H795.72v53.48H689.81Zm476.6,0H954.59V1879.6h211.82Z"/><path class="cls-6" d="M425,2040h-53v-107h53V1719.15H478v-53.48h53v-53.48H742.77v53.48h53v53.48h53v53.48h-53v-53.48h-53v-53.48H531v53.48H478v213.93H425v107Zm1112.05-213.92v-53.49h-52.95v-53.48h-53v-107h-53v-53.48h-53v-53.48h-53v-53.48H1113.45v53.48h-53v53.48h-53v-53.48H954.59v107H848.68v53.48h53v160.45H795.72v53.48h53v53.48h53v-107h53V1665.67h52.95v-53.48h53v-53.48h53v-53.48h158.87v53.48h53v53.48h53v107h53v53.48h53v53.49ZM901.63,1398.27v-53.48h53v107h-53v53.48H795.72v-53.48h53v-53.48Z"/></svg>